<?xml version="1.0" encoding="utf-8"?>
<!-- Generator: Adobe Illustrator 19.2.0, SVG Export Plug-In . SVG Version: 6.00 Build 0)  -->
<svg version="1.1" xmlns="http://www.w3.org/2000/svg" xmlns:xlink="http://www.w3.org/1999/xlink" x="0px" y="0px"
	 viewBox="0 0 282 282" style="enable-background:new 0 0 282 282;" xml:space="preserve">
<style type="text/css">
	.st0{fill:#f8f8f8;stroke:#222A37;stroke-width:2;stroke-dasharray:24;}
</style>
<g id="Layer_2">
</g>
<g id="Layer_1" xmlns:sketch="http://www.bohemiancoding.com/sketch/ns">
	<title>Page 1 + Oval 7 Copy 8</title>
	<desc>Created with Sketch.</desc>
	<g id="Welcome" sketch:type="MSPage">
		<g id="Product-v3" transform="translate(-127.000000, -3048.000000)" sketch:type="MSArtboardGroup">
			<g id="Page-1-_x2B_-Oval-7-Copy-8" transform="translate(127.000000, 3048.000000)" sketch:type="MSLayerGroup">
				<circle id="Oval-7-Copy-8" sketch:type="MSShapeGroup" class="st0" cx="141" cy="141" r="141">
				</circle>
				<g id="Page-1" transform="translate(85.000000, 79.000000)" sketch:type="MSShapeGroup">
					<path id="Fill-1" d="M53,8C24.3,8,0.9,31,0.9,59.5C0.9,87.8,24.2,111,53,111h0.8V8H53z M52.2,9.6v99.7
						c-13.4-0.1-25.8-5.4-35.1-14.9C7.7,85.1,2.4,72.7,2.4,59.5S7.7,33.9,17,24.4C26.4,15.1,38.9,9.8,52.2,9.6L52.2,9.6z"/>
					<path id="Fill-2" d="M116.1,63.4v-1.5H58.5v56.9h0.8C90.3,118.7,115.6,94,116.1,63.4L116.1,63.4L116.1,63.4z M60.1,117.2V63.5
						h54.5C114,92.9,89.9,116.8,60.1,117.2L60.1,117.2z"/>
					<path id="Fill-3" d="M60.1,0.3h-1.6v56.9h57.6v-0.8C116.1,25.7,91.1,0.6,60.1,0.3L60.1,0.3L60.1,0.3z M114.6,55.6H60.1V1.8
						C89.9,2.2,114.2,26.1,114.6,55.6L114.6,55.6z"/>
				</g>
			</g>
		</g>
	</g>
</g>
</svg>
