<?xml version="1.0" encoding="utf-8"?>
<!-- Generator: Adobe Illustrator 19.2.0, SVG Export Plug-In . SVG Version: 6.00 Build 0)  -->
<svg version="1.1" xmlns="http://www.w3.org/2000/svg" xmlns:xlink="http://www.w3.org/1999/xlink" x="0px" y="0px"
	 viewBox="0 0 282 282" style="enable-background:new 0 0 282 282;" xml:space="preserve">
<style type="text/css">
	.st0{clip-path:url(#SVGID_2_);}
	.st1{clip-path:url(#SVGID_4_);}
	.st2{clip-path:url(#SVGID_6_);}
	.st3{clip-path:url(#SVGID_8_);}
	.st4{clip-path:url(#SVGID_10_);}
	.st5{clip-path:url(#SVGID_12_);}
	.st6{clip-path:url(#SVGID_14_);}
	.st7{clip-path:url(#SVGID_16_);}
	.st8{clip-path:url(#SVGID_18_);}
	.st9{clip-path:url(#SVGID_20_);}
	.st10{clip-path:url(#SVGID_22_);}
	.st11{clip-path:url(#SVGID_24_);}
	.st12{clip-path:url(#SVGID_26_);}
	.st13{clip-path:url(#SVGID_28_);}
	.st14{clip-path:url(#SVGID_30_);}
	.st15{clip-path:url(#SVGID_32_);}
	.st16{clip-path:url(#SVGID_34_);}
	.st17{clip-path:url(#SVGID_36_);}
	.st18{clip-path:url(#SVGID_38_);}
	.st19{clip-path:url(#SVGID_40_);}
	.st20{clip-path:url(#SVGID_42_);}
	.st21{clip-path:url(#SVGID_44_);}
	.st22{clip-path:url(#SVGID_46_);}
	.st23{clip-path:url(#SVGID_48_);}
	.st24{clip-path:url(#SVGID_50_);}
	.st25{clip-path:url(#SVGID_52_);}
	.st26{clip-path:url(#SVGID_54_);}
	.st27{clip-path:url(#SVGID_56_);}
	.st28{clip-path:url(#SVGID_58_);}
	.st29{clip-path:url(#SVGID_60_);}
	.st30{clip-path:url(#SVGID_62_);}
	.st31{clip-path:url(#SVGID_64_);}
	.st32{clip-path:url(#SVGID_66_);}
	.st33{clip-path:url(#SVGID_68_);}
	.st34{fill:#f8f8f8;stroke:#222A37;stroke-width:2;stroke-dasharray:24;}
</style>
<g id="Layer_2">
	<g>
		<defs>
			<path id="SVGID_1_" d="M-279.3-430.5h-57.5v-81.1h57.5V-430.5z M-341.5-430.5v-11.6h2.4v11.6H-341.5z M-341.5-460.6h2.4v16.2
				h-2.4V-460.6z M-341.5-479.1h2.4v16.2h-2.4V-479.1z M-341.5-497.6h2.4v16.2h-2.4V-497.6z M-341.5-511.5h2.4v11.6h-2.4V-511.5z
				 M-339.1-513.8h-4.7v13.9h-1c-0.6,0-1.1,0.5-1.1,1.2c0,0.6,0.5,1.2,1.1,1.2h1v16.2h-1c-0.6,0-1.1,0.5-1.1,1.2s0.5,1.2,1.1,1.2h1
				v16.2h-1c-0.6,0-1.1,0.5-1.1,1.2s0.5,1.2,1.1,1.2h1v16.2h-1c-0.6,0-1.1,0.5-1.1,1.2c0,0.6,0.5,1.2,1.1,1.2h1v13.9h66.8v-85.7
				H-339.1z"/>
		</defs>
		<clipPath id="SVGID_2_">
			<use xlink:href="#SVGID_1_"  style="overflow:visible;"/>
		</clipPath>
		<g class="st0">
			<defs>
				<rect id="SVGID_3_" x="-581" y="-1605" width="1440" height="3640"/>
			</defs>
			<clipPath id="SVGID_4_">
				<use xlink:href="#SVGID_3_"  style="overflow:visible;"/>
			</clipPath>
			<rect x="-351" y="-518.8" class="st1" width="79" height="95.7"/>
		</g>
	</g>
	<g>
		<defs>
			<path id="SVGID_5_" d="M-316.1-486.1h-11.5v-11.6h11.5V-486.1z M-313.8-499.9h-16.1v16.2h16.1V-499.9z"/>
		</defs>
		<clipPath id="SVGID_6_">
			<use xlink:href="#SVGID_5_"  style="overflow:visible;"/>
		</clipPath>
		<g class="st2">
			<defs>
				<rect id="SVGID_7_" x="-581" y="-1605" width="1440" height="3640"/>
			</defs>
			<clipPath id="SVGID_8_">
				<use xlink:href="#SVGID_7_"  style="overflow:visible;"/>
			</clipPath>
			<rect x="-334.9" y="-504.9" class="st3" width="26.1" height="26.2"/>
		</g>
	</g>
	<g>
		<defs>
			<rect id="SVGID_9_" x="-305.8" y="-499.9" width="18.4" height="2.3"/>
		</defs>
		<clipPath id="SVGID_10_">
			<use xlink:href="#SVGID_9_"  style="overflow:visible;"/>
		</clipPath>
		<g class="st4">
			<defs>
				<rect id="SVGID_11_" x="-581" y="-1605" width="1440" height="3640"/>
			</defs>
			<clipPath id="SVGID_12_">
				<use xlink:href="#SVGID_11_"  style="overflow:visible;"/>
			</clipPath>
			<rect x="-310.8" y="-504.9" class="st5" width="28.4" height="12.3"/>
		</g>
	</g>
	<g>
		<defs>
			<rect id="SVGID_13_" x="-305.8" y="-495.3" width="18.4" height="2.3"/>
		</defs>
		<clipPath id="SVGID_14_">
			<use xlink:href="#SVGID_13_"  style="overflow:visible;"/>
		</clipPath>
		<g class="st6">
			<defs>
				<rect id="SVGID_15_" x="-581" y="-1605" width="1440" height="3640"/>
			</defs>
			<clipPath id="SVGID_16_">
				<use xlink:href="#SVGID_15_"  style="overflow:visible;"/>
			</clipPath>
			<rect x="-310.8" y="-500.3" class="st7" width="28.4" height="12.3"/>
		</g>
	</g>
	<g>
		<defs>
			<rect id="SVGID_17_" x="-305.8" y="-490.7" width="13.8" height="2.3"/>
		</defs>
		<clipPath id="SVGID_18_">
			<use xlink:href="#SVGID_17_"  style="overflow:visible;"/>
		</clipPath>
		<g class="st8">
			<defs>
				<rect id="SVGID_19_" x="-581" y="-1605" width="1440" height="3640"/>
			</defs>
			<clipPath id="SVGID_20_">
				<use xlink:href="#SVGID_19_"  style="overflow:visible;"/>
			</clipPath>
			<rect x="-310.8" y="-495.7" class="st9" width="23.8" height="12.3"/>
		</g>
	</g>
	<g>
		<defs>
			<rect id="SVGID_21_" x="-319.5" y="-472.2" width="32.2" height="2.3"/>
		</defs>
		<clipPath id="SVGID_22_">
			<use xlink:href="#SVGID_21_"  style="overflow:visible;"/>
		</clipPath>
		<g class="st10">
			<defs>
				<rect id="SVGID_23_" x="-581" y="-1605" width="1440" height="3640"/>
			</defs>
			<clipPath id="SVGID_24_">
				<use xlink:href="#SVGID_23_"  style="overflow:visible;"/>
			</clipPath>
			<rect x="-324.5" y="-477.2" class="st11" width="42.2" height="12.3"/>
		</g>
	</g>
	<g>
		<defs>
			<rect id="SVGID_25_" x="-319.5" y="-467.5" width="32.2" height="2.3"/>
		</defs>
		<clipPath id="SVGID_26_">
			<use xlink:href="#SVGID_25_"  style="overflow:visible;"/>
		</clipPath>
		<g class="st12">
			<defs>
				<rect id="SVGID_27_" x="-581" y="-1605" width="1440" height="3640"/>
			</defs>
			<clipPath id="SVGID_28_">
				<use xlink:href="#SVGID_27_"  style="overflow:visible;"/>
			</clipPath>
			<rect x="-324.5" y="-472.5" class="st13" width="42.2" height="12.3"/>
		</g>
	</g>
	<g>
		<defs>
			<rect id="SVGID_29_" x="-319.5" y="-462.9" width="32.2" height="2.3"/>
		</defs>
		<clipPath id="SVGID_30_">
			<use xlink:href="#SVGID_29_"  style="overflow:visible;"/>
		</clipPath>
		<g class="st14">
			<defs>
				<rect id="SVGID_31_" x="-581" y="-1605" width="1440" height="3640"/>
			</defs>
			<clipPath id="SVGID_32_">
				<use xlink:href="#SVGID_31_"  style="overflow:visible;"/>
			</clipPath>
			<rect x="-324.5" y="-467.9" class="st15" width="42.2" height="12.3"/>
		</g>
	</g>
	<g>
		<defs>
			<rect id="SVGID_33_" x="-329.9" y="-472.2" width="2.3" height="2.3"/>
		</defs>
		<clipPath id="SVGID_34_">
			<use xlink:href="#SVGID_33_"  style="overflow:visible;"/>
		</clipPath>
		<g class="st16">
			<defs>
				<rect id="SVGID_35_" x="-581" y="-1605" width="1440" height="3640"/>
			</defs>
			<clipPath id="SVGID_36_">
				<use xlink:href="#SVGID_35_"  style="overflow:visible;"/>
			</clipPath>
			<rect x="-334.9" y="-477.2" class="st17" width="12.3" height="12.3"/>
		</g>
	</g>
	<g>
		<defs>
			<rect id="SVGID_37_" x="-329.9" y="-467.5" width="2.3" height="2.3"/>
		</defs>
		<clipPath id="SVGID_38_">
			<use xlink:href="#SVGID_37_"  style="overflow:visible;"/>
		</clipPath>
		<g class="st18">
			<defs>
				<rect id="SVGID_39_" x="-581" y="-1605" width="1440" height="3640"/>
			</defs>
			<clipPath id="SVGID_40_">
				<use xlink:href="#SVGID_39_"  style="overflow:visible;"/>
			</clipPath>
			<rect x="-334.9" y="-472.5" class="st19" width="12.3" height="12.3"/>
		</g>
	</g>
	<g>
		<defs>
			<rect id="SVGID_41_" x="-329.9" y="-462.9" width="2.3" height="2.3"/>
		</defs>
		<clipPath id="SVGID_42_">
			<use xlink:href="#SVGID_41_"  style="overflow:visible;"/>
		</clipPath>
		<g class="st20">
			<defs>
				<rect id="SVGID_43_" x="-581" y="-1605" width="1440" height="3640"/>
			</defs>
			<clipPath id="SVGID_44_">
				<use xlink:href="#SVGID_43_"  style="overflow:visible;"/>
			</clipPath>
			<rect x="-334.9" y="-467.9" class="st21" width="12.3" height="12.3"/>
		</g>
	</g>
	<g>
		<defs>
			<rect id="SVGID_45_" x="-319.5" y="-453.6" width="32.2" height="2.3"/>
		</defs>
		<clipPath id="SVGID_46_">
			<use xlink:href="#SVGID_45_"  style="overflow:visible;"/>
		</clipPath>
		<g class="st22">
			<defs>
				<rect id="SVGID_47_" x="-581" y="-1605" width="1440" height="3640"/>
			</defs>
			<clipPath id="SVGID_48_">
				<use xlink:href="#SVGID_47_"  style="overflow:visible;"/>
			</clipPath>
			<rect x="-324.5" y="-458.6" class="st23" width="42.2" height="12.3"/>
		</g>
	</g>
	<g>
		<defs>
			<rect id="SVGID_49_" x="-319.5" y="-449" width="32.2" height="2.3"/>
		</defs>
		<clipPath id="SVGID_50_">
			<use xlink:href="#SVGID_49_"  style="overflow:visible;"/>
		</clipPath>
		<g class="st24">
			<defs>
				<rect id="SVGID_51_" x="-581" y="-1605" width="1440" height="3640"/>
			</defs>
			<clipPath id="SVGID_52_">
				<use xlink:href="#SVGID_51_"  style="overflow:visible;"/>
			</clipPath>
			<rect x="-324.5" y="-454" class="st25" width="42.2" height="12.3"/>
		</g>
	</g>
	<g>
		<defs>
			<rect id="SVGID_53_" x="-319.5" y="-444.4" width="32.2" height="2.3"/>
		</defs>
		<clipPath id="SVGID_54_">
			<use xlink:href="#SVGID_53_"  style="overflow:visible;"/>
		</clipPath>
		<g class="st26">
			<defs>
				<rect id="SVGID_55_" x="-581" y="-1605" width="1440" height="3640"/>
			</defs>
			<clipPath id="SVGID_56_">
				<use xlink:href="#SVGID_55_"  style="overflow:visible;"/>
			</clipPath>
			<rect x="-324.5" y="-449.4" class="st27" width="42.2" height="12.3"/>
		</g>
	</g>
	<g>
		<defs>
			<rect id="SVGID_57_" x="-329.9" y="-453.6" width="2.3" height="2.3"/>
		</defs>
		<clipPath id="SVGID_58_">
			<use xlink:href="#SVGID_57_"  style="overflow:visible;"/>
		</clipPath>
		<g class="st28">
			<defs>
				<rect id="SVGID_59_" x="-581" y="-1605" width="1440" height="3640"/>
			</defs>
			<clipPath id="SVGID_60_">
				<use xlink:href="#SVGID_59_"  style="overflow:visible;"/>
			</clipPath>
			<rect x="-334.9" y="-458.6" class="st29" width="12.3" height="12.3"/>
		</g>
	</g>
	<g>
		<defs>
			<rect id="SVGID_61_" x="-329.9" y="-449" width="2.3" height="2.3"/>
		</defs>
		<clipPath id="SVGID_62_">
			<use xlink:href="#SVGID_61_"  style="overflow:visible;"/>
		</clipPath>
		<g class="st30">
			<defs>
				<rect id="SVGID_63_" x="-581" y="-1605" width="1440" height="3640"/>
			</defs>
			<clipPath id="SVGID_64_">
				<use xlink:href="#SVGID_63_"  style="overflow:visible;"/>
			</clipPath>
			<rect x="-334.9" y="-454" class="st31" width="12.3" height="12.3"/>
		</g>
	</g>
	<g>
		<defs>
			<rect id="SVGID_65_" x="-329.9" y="-444.4" width="2.3" height="2.3"/>
		</defs>
		<clipPath id="SVGID_66_">
			<use xlink:href="#SVGID_65_"  style="overflow:visible;"/>
		</clipPath>
		<g class="st32">
			<defs>
				<rect id="SVGID_67_" x="-581" y="-1605" width="1440" height="3640"/>
			</defs>
			<clipPath id="SVGID_68_">
				<use xlink:href="#SVGID_67_"  style="overflow:visible;"/>
			</clipPath>
			<rect x="-334.9" y="-449.4" class="st33" width="12.3" height="12.3"/>
		</g>
	</g>
</g>
<g id="Layer_1" xmlns:sketch="http://www.bohemiancoding.com/sketch/ns">
	<title>Page 1 + Oval 7 Copy 8</title>
	<desc>Created with Sketch.</desc>
	<g id="Welcome" sketch:type="MSPage">
		<g id="Product-v3" transform="translate(-127.000000, -3048.000000)" sketch:type="MSArtboardGroup">
			<g id="Page-1-_x2B_-Oval-7-Copy-8" transform="translate(127.000000, 3048.000000)" sketch:type="MSLayerGroup">
				<circle id="Oval-7-Copy-8" sketch:type="MSShapeGroup" class="st34" cx="141" cy="141" r="141">
				</circle>
			</g>
		</g>
	</g>
	<g id="Welcome_1_" sketch:type="MSPage">
		<g id="Customer-Service" transform="translate(-235.000000, -1091.000000)" sketch:type="MSArtboardGroup">
			<g id="Group" transform="translate(235.000000, 1091.000000)" sketch:type="MSLayerGroup">
				<path id="Fill-1" sketch:type="MSShapeGroup" d="M113.4,98.2h-4.7v13.9h-1c-0.6,0-1.2,0.5-1.2,1.2c0,0.6,0.5,1.2,1.2,1.2h1v16.2
					h-1c-0.6,0-1.2,0.5-1.2,1.2s0.5,1.2,1.2,1.2h1v16.2h-1c-0.6,0-1.2,0.5-1.2,1.2c0,0.6,0.5,1.2,1.2,1.2h1v16.2h-1
					c-0.6,0-1.2,0.5-1.2,1.2s0.5,1.2,1.2,1.2h1v13.9h66.8V98.2H113.4z M111,100.5h2.4v11.6H111V100.5z M111,114.4h2.4v16.2H111
					V114.4z M111,132.9h2.4v16.2H111V132.9z M111,151.4h2.4v16.2H111V151.4z M111,181.5v-11.6h2.4v11.6H111z M173.2,181.5h-57.5
					v-81.1h57.5V181.5z"/>
				<path id="Fill-2" sketch:type="MSShapeGroup" d="M138.7,112.1h-16.1v16.2h16.1V112.1z M136.4,125.9h-11.5v-11.6h11.5V125.9z"/>
				<path id="Fill-3" sketch:type="MSShapeGroup" d="M146.8,112.1h18.4v2.3h-18.4V112.1z"/>
				<path id="Fill-4" sketch:type="MSShapeGroup" d="M146.8,116.7h18.4v2.3h-18.4V116.7z"/>
				<path id="Fill-5" sketch:type="MSShapeGroup" d="M146.8,121.3h13.8v2.3h-13.8V121.3z"/>
				<path id="Fill-6" sketch:type="MSShapeGroup" d="M132.9,139.8h32.2v2.3h-32.2V139.8z"/>
				<path id="Fill-7" sketch:type="MSShapeGroup" d="M132.9,144.5h32.2v2.3h-32.2V144.5z"/>
				<path id="Fill-8" sketch:type="MSShapeGroup" d="M132.9,149.1h32.2v2.3h-32.2V149.1z"/>
				<path id="Fill-9" sketch:type="MSShapeGroup" d="M122.6,139.8h2.3v2.3h-2.3V139.8z"/>
				<path id="Fill-10" sketch:type="MSShapeGroup" d="M122.6,144.5h2.3v2.3h-2.3V144.5z"/>
				<path id="Fill-11" sketch:type="MSShapeGroup" d="M122.6,149.1h2.3v2.3h-2.3V149.1z"/>
				<path id="Fill-12" sketch:type="MSShapeGroup" d="M132.9,158.4h32.2v2.3h-32.2V158.4z"/>
				<path id="Fill-13" sketch:type="MSShapeGroup" d="M132.9,163h32.2v2.3h-32.2V163z"/>
				<path id="Fill-14" sketch:type="MSShapeGroup" d="M132.9,167.6h32.2v2.3h-32.2V167.6z"/>
				<path id="Fill-15" sketch:type="MSShapeGroup" d="M122.6,158.4h2.3v2.3h-2.3V158.4z"/>
				<path id="Fill-16" sketch:type="MSShapeGroup" d="M122.6,163h2.3v2.3h-2.3V163z"/>
				<path id="Fill-17" sketch:type="MSShapeGroup" d="M122.6,167.6h2.3v2.3h-2.3V167.6z"/>
			</g>
		</g>
	</g>
</g>
</svg>
