<?xml version="1.0" encoding="utf-8"?>
<!-- Generator: Adobe Illustrator 19.2.0, SVG Export Plug-In . SVG Version: 6.00 Build 0)  -->
<svg version="1.1" xmlns="http://www.w3.org/2000/svg" xmlns:xlink="http://www.w3.org/1999/xlink" x="0px" y="0px"
	 viewBox="0 0 282 282" style="enable-background:new 0 0 282 282;" xml:space="preserve">
<style type="text/css">
	.st0{clip-path:url(#SVGID_2_);}
	.st1{clip-path:url(#SVGID_4_);}
	.st2{clip-path:url(#SVGID_6_);}
	.st3{clip-path:url(#SVGID_8_);}
	.st4{clip-path:url(#SVGID_10_);}
	.st5{clip-path:url(#SVGID_12_);}
	.st6{clip-path:url(#SVGID_14_);}
	.st7{clip-path:url(#SVGID_16_);}
	.st8{clip-path:url(#SVGID_18_);}
	.st9{clip-path:url(#SVGID_20_);}
	.st10{clip-path:url(#SVGID_22_);}
	.st11{clip-path:url(#SVGID_24_);}
	.st12{clip-path:url(#SVGID_26_);}
	.st13{clip-path:url(#SVGID_28_);}
	.st14{clip-path:url(#SVGID_30_);}
	.st15{clip-path:url(#SVGID_32_);}
	.st16{clip-path:url(#SVGID_34_);}
	.st17{clip-path:url(#SVGID_36_);}
	.st18{clip-path:url(#SVGID_38_);}
	.st19{clip-path:url(#SVGID_40_);}
	.st20{clip-path:url(#SVGID_42_);}
	.st21{clip-path:url(#SVGID_44_);}
	.st22{clip-path:url(#SVGID_46_);}
	.st23{clip-path:url(#SVGID_48_);}
	.st24{clip-path:url(#SVGID_50_);}
	.st25{clip-path:url(#SVGID_52_);}
	.st26{clip-path:url(#SVGID_54_);}
	.st27{clip-path:url(#SVGID_56_);}
	.st28{clip-path:url(#SVGID_58_);}
	.st29{clip-path:url(#SVGID_60_);}
	.st30{clip-path:url(#SVGID_62_);}
	.st31{clip-path:url(#SVGID_64_);}
	.st32{clip-path:url(#SVGID_66_);}
	.st33{clip-path:url(#SVGID_68_);}
	.st34{fill:#F8f8f8;stroke:#222A37;stroke-width:2;stroke-dasharray:24;}
</style>
<g id="Layer_2">
	<g>
		<defs>
			<path id="SVGID_1_" d="M-279.3-430.5h-57.5v-81.1h57.5V-430.5z M-341.5-430.5v-11.6h2.4v11.6H-341.5z M-341.5-460.6h2.4v16.2
				h-2.4V-460.6z M-341.5-479.1h2.4v16.2h-2.4V-479.1z M-341.5-497.6h2.4v16.2h-2.4V-497.6z M-341.5-511.5h2.4v11.6h-2.4V-511.5z
				 M-339.1-513.8h-4.7v13.9h-1c-0.6,0-1.1,0.5-1.1,1.2c0,0.6,0.5,1.2,1.1,1.2h1v16.2h-1c-0.6,0-1.1,0.5-1.1,1.2s0.5,1.2,1.1,1.2h1
				v16.2h-1c-0.6,0-1.1,0.5-1.1,1.2s0.5,1.2,1.1,1.2h1v16.2h-1c-0.6,0-1.1,0.5-1.1,1.2c0,0.6,0.5,1.2,1.1,1.2h1v13.9h66.8v-85.7
				H-339.1z"/>
		</defs>
		<clipPath id="SVGID_2_">
			<use xlink:href="#SVGID_1_"  style="overflow:visible;"/>
		</clipPath>
		<g class="st0">
			<defs>
				<rect id="SVGID_3_" x="-581" y="-1605" width="1440" height="3640"/>
			</defs>
			<clipPath id="SVGID_4_">
				<use xlink:href="#SVGID_3_"  style="overflow:visible;"/>
			</clipPath>
			<rect x="-351" y="-518.8" class="st1" width="79" height="95.7"/>
		</g>
	</g>
	<g>
		<defs>
			<path id="SVGID_5_" d="M-316.1-486.1h-11.5v-11.6h11.5V-486.1z M-313.8-499.9h-16.1v16.2h16.1V-499.9z"/>
		</defs>
		<clipPath id="SVGID_6_">
			<use xlink:href="#SVGID_5_"  style="overflow:visible;"/>
		</clipPath>
		<g class="st2">
			<defs>
				<rect id="SVGID_7_" x="-581" y="-1605" width="1440" height="3640"/>
			</defs>
			<clipPath id="SVGID_8_">
				<use xlink:href="#SVGID_7_"  style="overflow:visible;"/>
			</clipPath>
			<rect x="-334.9" y="-504.9" class="st3" width="26.1" height="26.2"/>
		</g>
	</g>
	<g>
		<defs>
			<rect id="SVGID_9_" x="-305.8" y="-499.9" width="18.4" height="2.3"/>
		</defs>
		<clipPath id="SVGID_10_">
			<use xlink:href="#SVGID_9_"  style="overflow:visible;"/>
		</clipPath>
		<g class="st4">
			<defs>
				<rect id="SVGID_11_" x="-581" y="-1605" width="1440" height="3640"/>
			</defs>
			<clipPath id="SVGID_12_">
				<use xlink:href="#SVGID_11_"  style="overflow:visible;"/>
			</clipPath>
			<rect x="-310.8" y="-504.9" class="st5" width="28.4" height="12.3"/>
		</g>
	</g>
	<g>
		<defs>
			<rect id="SVGID_13_" x="-305.8" y="-495.3" width="18.4" height="2.3"/>
		</defs>
		<clipPath id="SVGID_14_">
			<use xlink:href="#SVGID_13_"  style="overflow:visible;"/>
		</clipPath>
		<g class="st6">
			<defs>
				<rect id="SVGID_15_" x="-581" y="-1605" width="1440" height="3640"/>
			</defs>
			<clipPath id="SVGID_16_">
				<use xlink:href="#SVGID_15_"  style="overflow:visible;"/>
			</clipPath>
			<rect x="-310.8" y="-500.3" class="st7" width="28.4" height="12.3"/>
		</g>
	</g>
	<g>
		<defs>
			<rect id="SVGID_17_" x="-305.8" y="-490.7" width="13.8" height="2.3"/>
		</defs>
		<clipPath id="SVGID_18_">
			<use xlink:href="#SVGID_17_"  style="overflow:visible;"/>
		</clipPath>
		<g class="st8">
			<defs>
				<rect id="SVGID_19_" x="-581" y="-1605" width="1440" height="3640"/>
			</defs>
			<clipPath id="SVGID_20_">
				<use xlink:href="#SVGID_19_"  style="overflow:visible;"/>
			</clipPath>
			<rect x="-310.8" y="-495.7" class="st9" width="23.8" height="12.3"/>
		</g>
	</g>
	<g>
		<defs>
			<rect id="SVGID_21_" x="-319.5" y="-472.2" width="32.2" height="2.3"/>
		</defs>
		<clipPath id="SVGID_22_">
			<use xlink:href="#SVGID_21_"  style="overflow:visible;"/>
		</clipPath>
		<g class="st10">
			<defs>
				<rect id="SVGID_23_" x="-581" y="-1605" width="1440" height="3640"/>
			</defs>
			<clipPath id="SVGID_24_">
				<use xlink:href="#SVGID_23_"  style="overflow:visible;"/>
			</clipPath>
			<rect x="-324.5" y="-477.2" class="st11" width="42.2" height="12.3"/>
		</g>
	</g>
	<g>
		<defs>
			<rect id="SVGID_25_" x="-319.5" y="-467.5" width="32.2" height="2.3"/>
		</defs>
		<clipPath id="SVGID_26_">
			<use xlink:href="#SVGID_25_"  style="overflow:visible;"/>
		</clipPath>
		<g class="st12">
			<defs>
				<rect id="SVGID_27_" x="-581" y="-1605" width="1440" height="3640"/>
			</defs>
			<clipPath id="SVGID_28_">
				<use xlink:href="#SVGID_27_"  style="overflow:visible;"/>
			</clipPath>
			<rect x="-324.5" y="-472.5" class="st13" width="42.2" height="12.3"/>
		</g>
	</g>
	<g>
		<defs>
			<rect id="SVGID_29_" x="-319.5" y="-462.9" width="32.2" height="2.3"/>
		</defs>
		<clipPath id="SVGID_30_">
			<use xlink:href="#SVGID_29_"  style="overflow:visible;"/>
		</clipPath>
		<g class="st14">
			<defs>
				<rect id="SVGID_31_" x="-581" y="-1605" width="1440" height="3640"/>
			</defs>
			<clipPath id="SVGID_32_">
				<use xlink:href="#SVGID_31_"  style="overflow:visible;"/>
			</clipPath>
			<rect x="-324.5" y="-467.9" class="st15" width="42.2" height="12.3"/>
		</g>
	</g>
	<g>
		<defs>
			<rect id="SVGID_33_" x="-329.9" y="-472.2" width="2.3" height="2.3"/>
		</defs>
		<clipPath id="SVGID_34_">
			<use xlink:href="#SVGID_33_"  style="overflow:visible;"/>
		</clipPath>
		<g class="st16">
			<defs>
				<rect id="SVGID_35_" x="-581" y="-1605" width="1440" height="3640"/>
			</defs>
			<clipPath id="SVGID_36_">
				<use xlink:href="#SVGID_35_"  style="overflow:visible;"/>
			</clipPath>
			<rect x="-334.9" y="-477.2" class="st17" width="12.3" height="12.3"/>
		</g>
	</g>
	<g>
		<defs>
			<rect id="SVGID_37_" x="-329.9" y="-467.5" width="2.3" height="2.3"/>
		</defs>
		<clipPath id="SVGID_38_">
			<use xlink:href="#SVGID_37_"  style="overflow:visible;"/>
		</clipPath>
		<g class="st18">
			<defs>
				<rect id="SVGID_39_" x="-581" y="-1605" width="1440" height="3640"/>
			</defs>
			<clipPath id="SVGID_40_">
				<use xlink:href="#SVGID_39_"  style="overflow:visible;"/>
			</clipPath>
			<rect x="-334.9" y="-472.5" class="st19" width="12.3" height="12.3"/>
		</g>
	</g>
	<g>
		<defs>
			<rect id="SVGID_41_" x="-329.9" y="-462.9" width="2.3" height="2.3"/>
		</defs>
		<clipPath id="SVGID_42_">
			<use xlink:href="#SVGID_41_"  style="overflow:visible;"/>
		</clipPath>
		<g class="st20">
			<defs>
				<rect id="SVGID_43_" x="-581" y="-1605" width="1440" height="3640"/>
			</defs>
			<clipPath id="SVGID_44_">
				<use xlink:href="#SVGID_43_"  style="overflow:visible;"/>
			</clipPath>
			<rect x="-334.9" y="-467.9" class="st21" width="12.3" height="12.3"/>
		</g>
	</g>
	<g>
		<defs>
			<rect id="SVGID_45_" x="-319.5" y="-453.6" width="32.2" height="2.3"/>
		</defs>
		<clipPath id="SVGID_46_">
			<use xlink:href="#SVGID_45_"  style="overflow:visible;"/>
		</clipPath>
		<g class="st22">
			<defs>
				<rect id="SVGID_47_" x="-581" y="-1605" width="1440" height="3640"/>
			</defs>
			<clipPath id="SVGID_48_">
				<use xlink:href="#SVGID_47_"  style="overflow:visible;"/>
			</clipPath>
			<rect x="-324.5" y="-458.6" class="st23" width="42.2" height="12.3"/>
		</g>
	</g>
	<g>
		<defs>
			<rect id="SVGID_49_" x="-319.5" y="-449" width="32.2" height="2.3"/>
		</defs>
		<clipPath id="SVGID_50_">
			<use xlink:href="#SVGID_49_"  style="overflow:visible;"/>
		</clipPath>
		<g class="st24">
			<defs>
				<rect id="SVGID_51_" x="-581" y="-1605" width="1440" height="3640"/>
			</defs>
			<clipPath id="SVGID_52_">
				<use xlink:href="#SVGID_51_"  style="overflow:visible;"/>
			</clipPath>
			<rect x="-324.5" y="-454" class="st25" width="42.2" height="12.3"/>
		</g>
	</g>
	<g>
		<defs>
			<rect id="SVGID_53_" x="-319.5" y="-444.4" width="32.2" height="2.3"/>
		</defs>
		<clipPath id="SVGID_54_">
			<use xlink:href="#SVGID_53_"  style="overflow:visible;"/>
		</clipPath>
		<g class="st26">
			<defs>
				<rect id="SVGID_55_" x="-581" y="-1605" width="1440" height="3640"/>
			</defs>
			<clipPath id="SVGID_56_">
				<use xlink:href="#SVGID_55_"  style="overflow:visible;"/>
			</clipPath>
			<rect x="-324.5" y="-449.4" class="st27" width="42.2" height="12.3"/>
		</g>
	</g>
	<g>
		<defs>
			<rect id="SVGID_57_" x="-329.9" y="-453.6" width="2.3" height="2.3"/>
		</defs>
		<clipPath id="SVGID_58_">
			<use xlink:href="#SVGID_57_"  style="overflow:visible;"/>
		</clipPath>
		<g class="st28">
			<defs>
				<rect id="SVGID_59_" x="-581" y="-1605" width="1440" height="3640"/>
			</defs>
			<clipPath id="SVGID_60_">
				<use xlink:href="#SVGID_59_"  style="overflow:visible;"/>
			</clipPath>
			<rect x="-334.9" y="-458.6" class="st29" width="12.3" height="12.3"/>
		</g>
	</g>
	<g>
		<defs>
			<rect id="SVGID_61_" x="-329.9" y="-449" width="2.3" height="2.3"/>
		</defs>
		<clipPath id="SVGID_62_">
			<use xlink:href="#SVGID_61_"  style="overflow:visible;"/>
		</clipPath>
		<g class="st30">
			<defs>
				<rect id="SVGID_63_" x="-581" y="-1605" width="1440" height="3640"/>
			</defs>
			<clipPath id="SVGID_64_">
				<use xlink:href="#SVGID_63_"  style="overflow:visible;"/>
			</clipPath>
			<rect x="-334.9" y="-454" class="st31" width="12.3" height="12.3"/>
		</g>
	</g>
	<g>
		<defs>
			<rect id="SVGID_65_" x="-329.9" y="-444.4" width="2.3" height="2.3"/>
		</defs>
		<clipPath id="SVGID_66_">
			<use xlink:href="#SVGID_65_"  style="overflow:visible;"/>
		</clipPath>
		<g class="st32">
			<defs>
				<rect id="SVGID_67_" x="-581" y="-1605" width="1440" height="3640"/>
			</defs>
			<clipPath id="SVGID_68_">
				<use xlink:href="#SVGID_67_"  style="overflow:visible;"/>
			</clipPath>
			<rect x="-334.9" y="-449.4" class="st33" width="12.3" height="12.3"/>
		</g>
	</g>
</g>
<g id="Layer_1" xmlns:sketch="http://www.bohemiancoding.com/sketch/ns">
	<title>Page 1 + Oval 7 Copy 8</title>
	<desc>Created with Sketch.</desc>
	<g id="Welcome" sketch:type="MSPage">
		<g id="Product-v3" transform="translate(-127.000000, -3048.000000)" sketch:type="MSArtboardGroup">
			<g id="Page-1-_x2B_-Oval-7-Copy-8" transform="translate(127.000000, 3048.000000)" sketch:type="MSLayerGroup">
				<circle id="Oval-7-Copy-8" sketch:type="MSShapeGroup" class="st34" cx="141" cy="141" r="141">
				</circle>
			</g>
		</g>
	</g>
	<g id="Welcome_1_" sketch:type="MSPage">
		<g id="Customer-Service" transform="translate(-229.000000, -1868.000000)" sketch:type="MSArtboardGroup">
			<g id="Page-1" transform="translate(228.000000, 1868.000000)" sketch:type="MSLayerGroup">
				<g sketch:type="MSShapeGroup">
					<path id="Fill-1" d="M178.7,163.4c-5.1-5.1-10.2-10.2-15.3-15.3c-1.5-1.5-2.9-1.5-4.5,0c-1.1,1-2.1,2.1-3.1,3.2l-1.1-1.1
						l-1.1,1.1l1.2,1.2c-0.8,0.9-1.5,1.8-2.3,2.8c-1.4-0.5-2.8-1.2-4.2-2c-5.5-3.2-10.5-7.6-15.3-13.6c-2.7-3.3-4.5-6.4-5.7-9.6
						c0,0,0-0.1,0-0.1c0,0,0.1,0,0.1-0.1c1-0.7,1.9-1.5,2.7-2.2l1.2,1.2l1.1-1.1l-1.1-1.1c1.1-1,2.1-1.9,3-2.9
						c1.8-1.9,1.8-3.2-0.1-5c-5-5-10.1-10.1-15.2-15.1c-1.4-1.4-2.8-1.4-4.3,0c-1.1,1.1-2.2,2.2-3.3,3.3l-1.1-1.1l-1.1,1.1l1.1,1.1
						c-2.6,3-4.5,6.5-5.6,10.8c-0.7,2.5-0.6,4.9,0.3,7.2c1.2,3.1,2.4,5.7,3.7,8.1c8,14.2,18.9,26.1,32.4,35.1
						c5.6,3.8,10.2,6.2,14.9,7.9c1.4,0.5,2.6,0.8,3.6,1l0.1,0h0.1c2.9-0.1,8.1-1.8,11.4-4c1.1-0.7,2-1.4,2.9-2.2l1.2,1.2l1.1-1.1
						l-1.1-1.1c0.6-0.5,1.1-1.1,1.7-1.7c0.5-0.5,1-1.1,1.6-1.6c0.5-0.5,1.1-1.2,1.1-2.2C179.8,164.6,179.2,163.9,178.7,163.4
						L178.7,163.4z M116.5,105.5c0.2-0.2,0.4-0.3,0.4-0.3c0,0,0.2,0.1,0.5,0.4c5.1,5,10.1,10,15.2,15.1c0.6,0.6,0.7,0.8,0.7,0.7
						c0,0.1-0.1,0.3-0.7,0.8c-0.9,1-1.9,1.9-3,2.9l-16.3-16.3C114.3,107.7,115.4,106.6,116.5,105.5L116.5,105.5z M170.1,172.3
						c-3,1.9-7.6,3.5-10.1,3.6c-0.8-0.1-1.8-0.4-3-0.8c-4.5-1.6-8.9-4-14.4-7.6c-13.2-8.8-23.8-20.4-31.6-34.3
						c-1.3-2.2-2.4-4.8-3.6-7.7c-0.7-1.8-0.8-3.6-0.2-5.7c1-3.9,2.6-7.1,5-9.7l16.2,16.2c-0.8,0.7-1.6,1.3-2.5,2
						c-1,0.8-1.3,1.8-0.9,3c1.3,3.4,3.3,6.8,6.1,10.3c5,6.2,10.2,10.8,16,14.1c1.5,0.9,3.1,1.6,4.8,2.2c1,0.3,1.9,0.1,2.5-0.8
						c0.7-0.9,1.4-1.8,2.2-2.7l16.1,16.1C171.8,171.1,171,171.7,170.1,172.3L170.1,172.3z M177,166.1c-0.5,0.5-1.1,1.1-1.6,1.6
						c-0.6,0.6-1.1,1.1-1.6,1.6L157.5,153c1-1.1,2-2.1,3.1-3.2c0.4-0.4,0.6-0.5,0.6-0.5c0,0,0.2,0.1,0.5,0.4
						c5.1,5.1,10.2,10.2,15.3,15.3c0.3,0.3,0.4,0.4,0.4,0.5C177.3,165.7,177.2,165.8,177,166.1L177,166.1z"/>
					<path id="Fill-2" d="M137.1,138.9c2.5-2.2,4.9-4.4,7.4-6.6l3.4-3.1c0.1-0.1,0.1-0.1,0.2-0.2c2-1.4,2.5-3.2,1.7-5.6
						c-1.6-4.7,1.3-10.3,6.3-12.1c1-0.4,2-0.6,3-0.8c-0.6,1.3-1.2,2.5-1.8,3.8l-0.8,1.7c-1.3,2.8-0.9,4.9,1.5,6.7
						c1.8,1.4,3.7,2.3,5.7,2.5c2.4,0.2,4.1-0.7,5.2-3c0.9-1.9,1.8-3.8,2.7-5.7l0.1-0.1c0,0,0,0,0,0c2.1,3.6,2.5,6.8,1.1,10
						c-1.5,3.6-4.1,5.7-7.9,6.2l-0.3,0c-0.2,0-0.3,0.1-0.5,0.1c-0.2,0-0.4,0-0.6,0l-0.3,0c-1.2,0-2.3-0.1-3.3-0.4
						c-1.4-0.4-2.6-0.1-3.6,1.1c-1.7,1.9-3.3,3.7-5,5.6l-3.1,3.4c-1.2,1.3-2.4,2.7-3.6,4l1.8,1.6c1.2-1.3,2.4-2.7,3.6-4l3.1-3.4
						c1.7-1.9,3.4-3.7,5-5.6c0.4-0.5,0.6-0.5,1-0.4c1.3,0.4,2.7,0.6,4.1,0.6l0.3,0c0.3,0,0.5,0,0.8,0c0.2,0,0.5-0.1,0.7-0.1l0.2,0
						c4.7-0.7,8-3.3,9.8-7.7c1.7-4.2,1.2-8.4-1.7-12.9c-0.4-0.6-1-1-1.6-1c-0.7,0-1.3,0.3-1.8,1c-0.2,0.3-0.4,0.6-0.5,0.9l-0.1,0.1
						c-0.9,1.9-1.8,3.8-2.7,5.7c-0.6,1.3-1.3,1.7-2.7,1.6c-1.5-0.1-3-0.8-4.5-1.9c-1.4-1.2-1.6-2.1-0.8-3.8l0.8-1.7
						c0.7-1.5,1.4-2.9,2.1-4.4c0.5-1.1,0.3-1.8,0-2.2c-0.3-0.4-0.9-0.9-2.1-0.7c-1.5,0.2-2.9,0.5-4.2,1c-6.1,2.3-9.7,9.2-7.7,15.2
						c0.5,1.6,0.2,2.2-0.8,2.8c-0.2,0.1-0.3,0.2-0.4,0.4l-3.4,3c-2.5,2.2-4.9,4.4-7.4,6.6L137.1,138.9z"/>
					<path id="Fill-3" d="M125.3,168.1c-2,2.2-4,4.5-6,6.7c-2,2.1-5.2,2.7-8,1.6c-2.8-1.2-4.6-3.9-4.6-6.9c0.1-2.2,0.8-3.9,2.2-5.2
						c2.2-2,4.4-4,6.6-5.9c1.3-1.1,2.5-2.3,3.8-3.4l-1.6-1.8c-1.3,1.1-2.5,2.3-3.8,3.4c-2.2,1.9-4.4,4-6.6,6c-1.8,1.7-2.8,4-3,6.9
						c0,4,2.4,7.6,6.1,9.2c1.2,0.5,2.5,0.8,3.8,0.8c2.6,0,5.1-1,6.9-2.9c2.1-2.2,4.1-4.5,6.1-6.7c1.1-1.3,2.2-2.5,3.4-3.7l-1.8-1.6
						C127.5,165.5,126.4,166.8,125.3,168.1L125.3,168.1z"/>
					<path id="Fill-4" d="M110.6,168.9c0,2.3,1.9,4.2,4.2,4.2c2.3,0,4.2-1.9,4.2-4.2s-1.9-4.2-4.2-4.2
						C112.5,164.8,110.6,166.6,110.6,168.9L110.6,168.9z M117.4,168.9c0,1.4-1.1,2.6-2.6,2.6s-2.6-1.1-2.6-2.6
						c0-1.4,1.1-2.6,2.6-2.6S117.4,167.5,117.4,168.9L117.4,168.9z"/>
				</g>
			</g>
		</g>
	</g>
</g>
</svg>
