<?xml version="1.0" encoding="utf-8"?>
<!-- Generator: Adobe Illustrator 19.2.0, SVG Export Plug-In . SVG Version: 6.00 Build 0)  -->
<svg version="1.1" id="Layer_1" xmlns:sketch="http://www.bohemiancoding.com/sketch/ns"
	 xmlns="http://www.w3.org/2000/svg" xmlns:xlink="http://www.w3.org/1999/xlink" x="0px" y="0px" viewBox="0 0 282 282"
	 style="enable-background:new 0 0 282 282;" xml:space="preserve">
<style type="text/css">
	.st0{fill:#f8f8f8;stroke:#222A37;stroke-width:2;stroke-dasharray:24;}
	.st1{fill:#262B37;}
</style>
<title>Page 1 + Oval 7 Copy 8</title>
<desc>Created with Sketch.</desc>
<g id="Welcome" sketch:type="MSPage">
	<g id="Product-v3" transform="translate(-127.000000, -3048.000000)" sketch:type="MSArtboardGroup">
		<g id="Page-1-_x2B_-Oval-7-Copy-8" transform="translate(127.000000, 3048.000000)" sketch:type="MSLayerGroup">
			<circle id="Oval-7-Copy-8" sketch:type="MSShapeGroup" class="st0" cx="141" cy="141" r="141">
			</circle>
			<g id="Page-1" transform="translate(72.000000, 71.000000)" sketch:type="MSShapeGroup">
				<path class="st1" d="M1.7,145.6c1.1-0.6,2.5-0.8,3.7-0.5l0.3,0.1L12,139l2.8,2.8l0,0l1.5,1.5l63.4-62.9l2.9,2.9L118.2,48
					l-0.8-0.8l4.2-4.2l3,2.9l-0.1,1.8l7.7,7.6l0.3-4.7l-7-11.3l-2.1-2.1l1-1l2,2l11.5,7l4.7-0.3l-7.7-7.6l-1.8,0.1l-2-2l1.4-1.4
					l-0.4-0.4c-0.3-0.3-0.3-0.9,0-1.2s0.9-0.3,1.2,0l0.4,0.4l2.5-2.5l-3-3l-0.8-0.8l-0.7-0.7l-0.8-0.8l-8.1-8.1l-0.8-0.8l-2-1.9
					l-5.1-2.7l0,0L96.6,0l-8.8,1.5l19.4,19.2l0.5-0.5l5.1,5.1l-9.1,9.1l-2.7-2.7l-0.8-0.8l-21-20.8l-1.5,8.7l13.4,21l-2.4,2.4
					l-2.6-2.6l-5,5c-1.7-0.5-4.5,0.7-6.8,3.1c-2.9,2.9-4,6.3-2.5,7.7l1.8,1.8l-1,1l3.5,3.5L5.2,132.1l3.7,3.6L0,144.4l1.4,1.4
					L1.7,145.6z M79,79.4l-62.6,62.1l-0.7-0.7l62.6-62.1L79,79.4z M116.7,47.8l-34,33.7l-4.5-4.4l34-33.7L116.7,47.8z M124.5,39.8
					l6.8,10.9l-0.1,1.9l-5.5-5.5l0.1-1.8l-4.1-4.1l-5,4.9l-1.3-1.3l7.1-7.1L124.5,39.8z M134.6,30.2l-1,1c-0.8-0.4-1.7-0.3-2.4,0.3
					c-0.6,0.6-0.8,1.6-0.3,2.3l-1.4,1.4l3.2,3.2l1.8-0.1l5.6,5.5l-1.9,0.1l-11-6.7l-2-1.9l7.3-7.2L134.6,30.2z M131.6,27.3l-8.1,8
					l-1,1l-7.9,7.9l-0.7-0.7l17-16.9L131.6,27.3z M119.3,15.1l1.9,1.9l-7.6,7.6l-5.1-5.1l6.6-6.6L119.3,15.1z M94.5,6.5l2.2-2.2
					L94,1.6l2.4-0.4l17.7,11.2l-6.9,6.8L94.5,6.5z M78.9,18.6l0.4-2.2l2.6,2.6l2.4-2.3l15.1,15L91.9,39L78.9,18.6z M72.5,54.7
					c-0.9-0.9,0-3.6,2.5-6.2c2.4-2.3,4.9-3.2,5.9-2.7l0.4,0.2l4.8-4.7l1.8,1.8L74.3,56.5L72.5,54.7z M74,58.3l0.3-0.3l15.2-15
					l2.3-2.2l8.4-8.4l2.8,2.7L76.8,61L74,58.3z M6.7,132l70.1-69.5l27.7-27.4l9.1-9.1l8.4-8.3l0.9,0.9L7.6,133L6.7,132z M12.8,138.1
					L12.8,138.1l-3.2-3.2l0,0L8,133.3L123.3,19l6.8,6.8l-17,16.9l-0.9-0.9L76.6,77.1l0.9,0.9l-62.7,62.1L12.8,138.1z M9.6,136.5
					l1.7,1.6l-5.8,5.8c-1.3-0.2-2.7,0-3.8,0.5L9.6,136.5z"/>
			</g>
		</g>
	</g>
</g>
</svg>
