<?xml version="1.0" encoding="utf-8"?>
<!-- Generator: Adobe Illustrator 19.2.0, SVG Export Plug-In . SVG Version: 6.00 Build 0)  -->
<svg version="1.1" id="Layer_1" xmlns:sketch="http://www.bohemiancoding.com/sketch/ns"
	 xmlns="http://www.w3.org/2000/svg" xmlns:xlink="http://www.w3.org/1999/xlink" x="0px" y="0px" viewBox="0 0 282 282"
	 style="enable-background:new 0 0 282 282;" xml:space="preserve">
<style type="text/css">
	.st0{fill:#f8f8f8;stroke:#222A37;stroke-width:2;stroke-dasharray:24;}
</style>
<title>Page 1 + Oval 7 Copy 8</title>
<desc>Created with Sketch.</desc>
<g id="Welcome" sketch:type="MSPage">
	<g id="Product-v3" transform="translate(-127.000000, -3048.000000)" sketch:type="MSArtboardGroup">
		<g id="Page-1-_x2B_-Oval-7-Copy-8" transform="translate(127.000000, 3048.000000)" sketch:type="MSLayerGroup">
			<circle id="Oval-7-Copy-8" sketch:type="MSShapeGroup" class="st0" cx="141" cy="141" r="141">
			</circle>
			<g id="Page-1" transform="translate(81.000000, 81.000000)" sketch:type="MSShapeGroup">
				<path d="M115.9,52.8c-0.5-0.1-1-0.1-1.4-0.1L111,37.6c2.1-0.8,3.3-3,2.8-5.2c-0.6-2.4-3-3.9-5.4-3.4c-0.5,0.1-0.9,0.3-1.3,0.6
					l-9.7-12c1.5-1.6,1.7-4.1,0.2-5.9c-1.6-1.9-4.4-2.2-6.3-0.7c-0.4,0.3-0.7,0.7-1,1.1l-14-6.3c0.6-2.1-0.4-4.5-2.4-5.4
					c-2.3-1-4.9,0-6,2.2c-0.2,0.4-0.3,0.8-0.3,1.3H52.5C52.2,1.7,50.3,0,48,0c-2.5,0-4.5,2-4.5,4.5c0,0.4,0.1,0.7,0.1,1.1l-14.5,6.6
					c-1.2-1.9-3.6-2.7-5.7-1.7c-2.3,1-3.3,3.7-2.3,6c0.2,0.5,0.5,0.8,0.8,1.2l-9.6,11.7c-1.9-1.2-4.4-0.8-5.8,0.9
					c-1.6,1.9-1.3,4.8,0.6,6.4c0.5,0.4,1,0.6,1.5,0.8L5,52.6c-2.2-0.2-4.3,1.2-4.8,3.4c-0.6,2.4,0.9,4.9,3.3,5.4
					c0.5,0.1,1,0.1,1.5,0.1l3.5,15.3c-2.1,0.8-3.3,3-2.8,5.2c0.6,2.4,3,4,5.4,3.4c0.5-0.1,0.9-0.3,1.3-0.5l9.8,12.3
					c-1.5,1.6-1.7,4.1-0.3,5.9c1.6,2,4.4,2.3,6.3,0.7c0.4-0.3,0.7-0.7,0.9-1l14.1,7c-0.7,2.1,0.2,4.5,2.3,5.5c2.2,1.1,4.9,0.2,6-2.1
					c0.2-0.4,0.3-0.9,0.4-1.4h15.7c0.3,2.2,2.2,3.9,4.4,3.9c2.5,0,4.5-2,4.5-4.5c0-0.5-0.1-1-0.3-1.4l14.1-6.9
					c1.2,1.9,3.7,2.6,5.7,1.6c2.2-1.1,3.2-3.8,2.1-6c-0.2-0.4-0.5-0.8-0.8-1.1l9.8-12.4c1.9,1.1,4.4,0.7,5.8-1.1
					c1.5-2,1.2-4.8-0.7-6.3c-0.4-0.3-0.8-0.5-1.2-0.7l3.5-15.2c2.2,0.2,4.3-1.2,4.8-3.5C119.9,55.8,118.4,53.4,115.9,52.8
					L115.9,52.8z M36,97.3l-5.6,1.3l4.8-2.3L36,97.3z M70.1,8.6c0.1,0,0.2,0.1,0.3,0.1L68,19.7l-15.3,3.4L49.4,8.8
					c1.6-0.5,2.8-1.9,3.1-3.7h15.1C67.7,6.6,68.7,8,70.1,8.6L70.1,8.6z M89.9,16c0.2,0.5,0.4,0.9,0.7,1.3c0.3,0.4,0.7,0.7,1,0.9
					L81,40.4l-14.8-7.1L69,20.7L89.9,16z M75.2,75.7l-6.1-7.6l13-2.9l-1.8,8.1L75.2,75.7z M79.9,74.8L78.7,80L76,76.7L79.9,74.8z
					 M28.8,97.6c-0.5-0.7-1.2-1.1-1.9-1.4l1.9-8l5.7,7.1L29,98C29,97.8,28.9,97.7,28.8,97.6L28.8,97.6z M29.1,86.8l2.4-10.2
					l15.5-3.5l0,16.3l-11.3,5.5L29.1,86.8z M13.5,36c0.8-0.9,1.1-2.1,1-3.2l1.4-0.3l-5.1,10.4v-5.3C11.8,37.3,12.8,36.8,13.5,36
					L13.5,36z M17.4,32.1l18.1-4l4.7,5.9l-5.2,22.5l-24.1,0V45.6L17.4,32.1z M27.2,18.7c0.2-0.1,0.3-0.2,0.5-0.3l7,8.7L18,30.8
					l5.8-12C24.9,19.2,26.1,19.1,27.2,18.7L27.2,18.7z M48.3,24l0-14.6l3.2,13.9L48.3,24z M51.8,24.5l0.5,2.2l-3.3-1.6L51.8,24.5z
					 M52.6,28.2l6.2,27.1L48.2,42.1l0-16L52.6,28.2z M86.8,44.5l-2.8,12.1l-9.5,0l7-14.6L86.8,44.5z M82.1,40.9l10.6-22l-5.6,24.4
					L82.1,40.9z M82.4,63.9l-12.8,2.9l4.3-9l9.8,0L82.4,63.9z M85,57.8l18.5,0l0,0.2l-0.3,1.2l-19.6,4.4L85,57.8z M48.1,72.8
					l8.3-1.9L53,86.4l-4.9,2.4L48.1,72.8z M61.1,60.1l5.8,7.2l-4,0.9L61.1,60.1z M61.8,68.5l-3.8,0.8l2-8.7L61.8,68.5z M60.8,57.8
					l11.8,0L68.2,67L60.8,57.8z M48.2,44l10,12.5l-10.1,0L48.2,44z M47,57.7l0,14.1l-15.2,3.4l4.1-17.5L47,57.7z M36.1,56.5l5-21.3
					l5.9,7.4l0,14L36.1,56.5z M48.2,57.7l11.1,0l0.2,0.2l-2.6,11.7l-8.6,1.9L48.2,57.7z M57.8,70.7l4.3-1l1.5,6.7l-3.1,6.4l-6.2,3
					L57.8,70.7z M63.3,69.4l4.2-0.9l-3,6.2L63.3,69.4z M73.2,56.6l-12.3,0l5-22l14.6,6.9L73.2,56.6z M60,55.2l-6-26.3L64.8,34
					L60,55.2z M65,32.8l-11.4-5.4l-0.7-3.1L67.7,21L65,32.8z M47,40.6l-5.6-6.9l1.7-7.3l3.9-0.9l0,0L47,40.6z M40.5,32.5l-3.8-4.7
					l5.1-1.1L40.5,32.5z M9.6,56.7H9c-0.2-1.2-0.9-2.5-2-3.3L9.6,48V56.7z M9.6,64.4v1.9l-2.3-4.8L9.6,64.4z M9.6,62.5l-1.8-2.3
					c0.5-0.6,0.9-1.1,1.1-1.9c0-0.2,0-0.3,0.1-0.3h0.6V62.5z M10.8,57.7l23.8,0l-4.2,17.8l-8.8,2L10.8,64V57.7z M30.2,76.8l-2,8.7
					l-5.6-7L30.2,76.8z M48.1,90.1l4.6-2.2l-1.3,5.8l-3.3,0.8L48.1,90.1z M51.1,95l-2.7,11.9c-0.1,0-0.2,0-0.3-0.1l0-11.1L51.1,95z
					 M52.4,94.7l2.7-0.6l-4.8,10L52.4,94.7z M52.6,93.4l1.4-6.2l5.7-2.7l-4,8.2L52.6,93.4z M61.4,83.7l3.5-1.7l1.9,8.2l-9.5,2.2
					L61.4,83.7z M62.3,81.9l1.8-3.7l0.6,2.5L62.3,81.9z M64.9,76.5l3.5-7.3l5.7,7l-8.4,4L64.9,76.5z M83.4,64.9l19.6-4.4l-0.5,2
					L81.6,72.6L83.4,64.9z M104.1,60.7l0.2,1l-0.5,0.2L104.1,60.7z M104.8,57.8l4.4,0v0.1l-4.3,1l-0.2-0.8L104.8,57.8z M104.6,62.8
					l3.2,14c-0.7,0.3-1.4,0.7-2,1.4c-0.7,0.9-1,1.9-1,3l-5.9,1.4l4.4-19.2L104.6,62.8z M109.2,76.6c-0.1,0-0.1,0-0.2,0l-3.3-14.3
					l3.5-1.7V76.6z M105.5,61.1l-0.3-1.1l4-0.9v0.2L105.5,61.1z M110.5,56.2c0,0.1,0,0.3,0,0.4h0v-0.9l0.2,0.1
					C110.6,56,110.5,56.1,110.5,56.2L110.5,56.2z M109.2,53.8l-3.2-1.5l3.2-13.6V53.8z M109.2,55.2v1.4l-4.1,0l0.7-3.1L109.2,55.2z
					 M104.1,55.3l-0.7-2.9l1.2,0.6L104.1,55.3z M103.2,56.6l-17.9,0L87.9,45l14.2,6.7L103.2,56.6z M88.2,43.8L93.9,19
					c0.2,0,0.4,0,0.7,0l7.2,31.2L88.2,43.8z M47.1,24.2L44,22.8l3.1-13.4L47.1,24.2z M45.3,24.7l-1.8,0.4l0.3-1.1L45.3,24.7z
					 M42.2,25.4l-6.2,1.4l-7.3-9.1c0.2-0.2,0.4-0.4,0.5-0.6l13.6,6.4L42.2,25.4z M16.5,31.1l-2.3,0.5c-0.2-0.6-0.5-1.1-0.9-1.5
					l9.3-11.2L16.5,31.1z M9.6,45.3l-3.2,6.6l3.2-13.5V45.3z M9.6,69.1v7.5c0,0,0,0,0,0L6.3,62.2L9.6,69.1z M14.1,79.2
					c-0.6-1.4-1.8-2.3-3.3-2.6v-5.1l3.6,7.5L14.1,79.2z M10.8,68.8v-2.9l9.6,11.9l-4.7,1.1L10.8,68.8z M21.2,78.9l6.6,8.2l-2.1,8.9
					c-0.6-0.1-1.2,0-1.8,0.2L16.2,80L21.2,78.9z M46.9,90.7l0,4.1L37.3,97l-1-1.2L46.9,90.7z M46.9,96l0,10.8
					c-0.5,0.1-0.9,0.2-1.3,0.4L38.1,98L46.9,96z M49.9,107.6l6.7-13.8L67,91.3l3.6,15.7c-1.6,0.5-2.8,1.9-3,3.7H51.9
					C51.7,109.5,51,108.3,49.9,107.6L49.9,107.6z M72,106.8c-0.1,0-0.1,0-0.2,0L68.2,91l8.4-2l-4.1,17.8
					C72.4,106.8,72.2,106.8,72,106.8L72,106.8z M67.9,89.9L66,81.5l8.8-4.3l3.5,4.3l-1.4,6.2L67.9,89.9z M79.3,82.7l3,3.8l-4.1,1
					L79.3,82.7z M79.6,81.2l1.6-7.1L102.1,64l-4.4,18.9l-14.1,3.3L79.6,81.2z M97.5,84.2L94.7,96c-0.9-0.1-1.8,0-2.6,0.4
					c-0.1,0-0.1,0.1-0.2,0.1l-7.5-9.3L97.5,84.2z M95.9,96.3l2.9-12.4l6.4-1.5c0.2,0.7,0.6,1.3,1.1,1.8l-9.8,12.4
					C96.3,96.5,96.1,96.4,95.9,96.3L95.9,96.3z M110.4,60l0.7-0.4c0.5,0.8,1.3,1.4,2.2,1.7l-2.9,12.8V60z M111.1,54.7l-0.7-0.4V40.3
					l2.9,12.7C112.4,53.3,111.7,53.9,111.1,54.7L111.1,54.7z M105.1,34.4c0.4,1.7,1.6,2.9,3.2,3.3L105,51.8l-1.8-0.9l-7.4-32.2
					c0.3-0.1,0.5-0.2,0.8-0.4l9.7,12C105.2,31.4,104.7,32.9,105.1,34.4L105.1,34.4z M89.6,14.9l-20.4,4.5L71.6,9
					c1.7,0.1,3.3-0.6,4.2-2.1l14,6.3C89.7,13.8,89.6,14.3,89.6,14.9L89.6,14.9z M46.1,8.6l-3.2,13.7l-13.3-6.3
					c0.3-0.8,0.3-1.8,0-2.7l14.5-6.6C44.5,7.5,45.2,8.2,46.1,8.6L46.1,8.6z M14.4,80.4l0.5-0.1l7.5,15.6l-9.2-11.6
					C14.2,83.2,14.6,81.8,14.4,80.4L14.4,80.4z M29.8,100l7.1-1.6l7.7,9.5c-0.3,0.3-0.6,0.6-0.8,0.9l-14.1-7
					C29.8,101.3,29.8,100.6,29.8,100L29.8,100z M73.7,107.1l4.2-18.4l5.3-1.2l7.8,9.7c-1.2,1.2-1.7,3-1.1,4.6l-14.1,6.9
					C75.3,108.1,74.5,107.5,73.7,107.1L73.7,107.1z"/>
			</g>
		</g>
	</g>
</g>
</svg>
