<?xml version="1.0" encoding="utf-8"?>
<!-- Generator: Adobe Illustrator 19.2.0, SVG Export Plug-In . SVG Version: 6.00 Build 0)  -->
<svg version="1.1" id="Layer_1" xmlns:sketch="http://www.bohemiancoding.com/sketch/ns"
	 xmlns="http://www.w3.org/2000/svg" xmlns:xlink="http://www.w3.org/1999/xlink" x="0px" y="0px" viewBox="0 0 282 282"
	 style="enable-background:new 0 0 282 282;" xml:space="preserve">
<style type="text/css">
	.st0{fill:#f8f8f8;stroke:#222A37;stroke-width:2;stroke-dasharray:24;}
</style>
<title>Page 1 + Oval 7 Copy 8</title>
<desc>Created with Sketch.</desc>
<g id="Welcome" sketch:type="MSPage">
	<g id="Product-v3" transform="translate(-127.000000, -3048.000000)" sketch:type="MSArtboardGroup">
		<g id="Page-1-_x2B_-Oval-7-Copy-8" transform="translate(127.000000, 3048.000000)" sketch:type="MSLayerGroup">
			<circle id="Oval-7-Copy-8" sketch:type="MSShapeGroup" class="st0" cx="141" cy="141" r="141">
			</circle>
			<g id="Page-1" transform="translate(102.000000, 77.000000)" sketch:type="MSShapeGroup">
				<path d="M84.8,29.2L57.5,1.9c-1-1-3.1-1.9-4.5-1.9H3C1.4,0,0,1.4,0,3v110.1c0,1.6,1.4,3,3,3h80.8c1.6,0,3-1.4,3-3V33.8
					C86.7,32.3,85.9,30.3,84.8,29.2L84.8,29.2z M83.5,115.1H72.3v-8.8h11.3V115.1z M64.7,10.5l7.3,7.3v2H60.5v-9.3L64.7,10.5
					L64.7,10.5z M60.5,10.3v-4l4,4H60.5z M83.5,29.4H72.3v-9.3h2L83.5,29.4L83.5,29.4z M29.8,96.5L26.5,87c0,0,0,0,0-0.1H37v8.5
					L33.7,93c-0.2-0.2-0.5-0.1-0.7,0.1l-2.7,3.4L29.8,96.5L29.8,96.5z M30.2,96.8L30,97l-0.1-0.2H30.2z M18.3,96.5l-2-1.8
					c-0.1-0.1-0.3-0.1-0.4-0.1c-0.1,0-0.3,0.1-0.3,0.2l-1,1.7h-0.3V87h11.3l0,0l-5,9.5L18.3,96.5L18.3,96.5z M20.5,96.8l-0.6,1.1
					l-1.3-1.1H20.5z M16.8,96.5h-1.2l0.4-0.7L16.8,96.5z M14.3,96.8l-0.1,0.2v-0.2H14.3z M14,29.6v9.1h-0.3
					c-1.1-2.2-1.7-4.6-1.7-7.1c0-0.7,0.1-1.3,0.1-1.9H14z M12.1,29.4c0.3-2,0.9-3.9,1.8-5.6v5.6H12.1z M27.2,29.6v2
					c0,0.2,0.1,0.4,0.3,0.5c0.2,0.1,0.4,0,0.5-0.1l2.5-2.4H37v9.1H26v-9.1H27.2z M26,29.4v-9.3h1.2v9.3L26,29.4L26,29.4z M28.2,29.6
					h1l-1,0.9V29.6z M66.6,58h-4.9V50h4.9V58z M66.6,58.3v9.1h-4.9v-9.1H66.6z M76.4,58h-4.2v-2.7h4.2V58z M48.3,78.1
					c-0.3-0.1-0.5,0.1-0.6,0.4l-2,8.3h-8.5v-9.3h11.5v9.3h-2l2-8C48.8,78.4,48.6,78.1,48.3,78.1L48.3,78.1z M37.2,95.6V87h8.4l-1,4
					L38,96.2L37.2,95.6z M26.1,86.7C26,86.7,26,86.7,26.1,86.7C26,86.7,26,86.7,26.1,86.7L26,77.4h11v9.3H26.1z M10.8,76.7
					c-0.3,0-0.5,0.2-0.5,0.5H2.7v-9.3H14v9.3h-2.7C11.3,76.9,11.1,76.7,10.8,76.7L10.8,76.7z M57.3,48.3h-5.1v-3.7h5.1V48.3z
					 M57.3,48.5V58h-5.1v-9.6H57.3z M61.2,68.3h5.9c0.3,0,0.5-0.2,0.5-0.5h2.7c0,0.3,0.2,0.5,0.5,0.5H72v1H60.5v-1.5h0.2
					C60.7,68.1,61,68.3,61.2,68.3L61.2,68.3z M60.3,69.3h-11v-1.5h2c0,0.3,0.2,0.5,0.5,0.5h6.1c0.3,0,0.5-0.2,0.5-0.5h2L60.3,69.3
					L60.3,69.3z M48.3,58h-11v-9.6h11V58z M37,58H26v-9.6h1.3c0.2,0,0.5,0,0.7,0c0.2,0,0.5,0,0.7,0H37L37,58L37,58z M31,48.3
					c2.2-0.4,4.2-1.2,6-2.3v2.3H31z M25.7,48.5V58H14.2v-9.6H25.7z M14.2,48.3v-6.8c2.5,3.5,6.3,6,10.8,6.8H14.2z M25.7,58.3v9.3
					H14.2v-9.3H25.7z M26,58.3h11v9.3H26V58.3z M37.2,58.3h11v9.3h-11V58.3z M49.2,67.6v-9.3h2v9.3L49.2,67.6L49.2,67.6z M52.2,67.4
					v-9.1h5.1v9.1H52.2z M51.2,58h-2v-9.6h2V58z M48.3,42.1v6.1h-11v-2.5c2.6-1.7,4.6-4,6-6.8h5.5v2.7
					C48.5,41.6,48.3,41.9,48.3,42.1L48.3,42.1z M37.2,44.6v-5.6h4.9C41,41.2,39.3,43.1,37.2,44.6L37.2,44.6z M37,44.8
					c-2.6,1.8-5.7,2.8-9,2.8c-0.7,0-1.4-0.1-2-0.1v-8.5h11L37,44.8L37,44.8z M25.7,47.4c-4.9-0.7-9.1-3.6-11.5-7.7v-0.8h11.5V47.4z
					 M14,39.3c-0.1-0.1-0.1-0.2-0.2-0.4H14V39.3z M14,41.2v7.1H2.7v-9.3h10C13.1,39.7,13.5,40.5,14,41.2L14,41.2z M14,48.5V58H2.7
					v-9.6H14z M14,58.3v9.3H2.7v-9.3H14z M14.2,67.8h11.5v9.3H14.2V67.8z M26,67.8h11v9.3H26V67.8z M37.2,77.2v-9.3h11v2
					c0,0.3,0.2,0.5,0.5,0.5v6.9L37.2,77.2L37.2,77.2z M49,70.3h11.3v6.9H49V70.3z M60.5,70.3H72v6.9H60.5V70.3z M72.3,70.3h5.4
					c0.3,0,0.5-0.2,0.5-0.5c0-0.3-0.2-0.5-0.5-0.5h-5.4v-1h4.7c0.3,0,0.5-0.2,0.5-0.5h6.1v9.3H72.3V70.3z M77.4,67.6v-9.3h6.1v9.3
					L77.4,67.6L77.4,67.6z M76.4,67.4h-4.2v-9.1h4.2V67.4z M72,58h-0.7v-2.7H72V58z M72,58.3v9.1h-0.7v-9.1H72z M70.3,67.6h-2.7
					v-9.3h2.7V67.6z M60.7,67.6h-0.2v-9.3h0.2V67.6z M60.3,67.6h-2v-9.3h2V67.6z M58.3,58v-9.6h2V58H58.3z M58.3,48.3v-4.2
					c0-0.3-0.2-0.5-0.5-0.5h-6.1c-0.3,0-0.5,0.2-0.5,0.5v4.2h-2v-6.1c0-0.2-0.1-0.3-0.2-0.4v-2.8h11.3v9.3L58.3,48.3L58.3,48.3z
					 M49,38.7v-9.1h11.3v9.1H49z M48.7,38.7h-5.4c1-2.2,1.6-4.6,1.6-7.1c0-0.7,0-1.3-0.1-1.9h4L48.7,38.7L48.7,38.7z M43.9,31.6
					c0,2.6-0.6,5-1.7,7.1h-5v-9.1h6.6C43.9,30.3,43.9,30.9,43.9,31.6L43.9,31.6z M37.2,29.4v-6.1l2.6-2.4c2.2,2.4,3.5,5.4,4,8.5
					H37.2z M37,29.4h-6.2l6.2-5.8V29.4z M25.7,38.7H14.2v-9.1h11.5V38.7z M12.6,38.7H2.7v-9.1h8.4C11,30.3,11,30.9,11,31.6
					C11,34.1,11.5,36.5,12.6,38.7L12.6,38.7z M2.5,38.7H1v-9.1h1.5V38.7z M2.5,38.9v9.3H1v-9.3H2.5z M2.5,48.5V58H1v-9.6H2.5z
					 M2.5,58.3v9.3H1v-9.3H2.5z M2.5,67.8v9.3H1v-9.3H2.5z M2.5,77.4v9.3H1v-9.3H2.5z M2.7,77.4h7.6v9.3H2.7V77.4z M11.3,77.4H14
					v9.3h-2.7V77.4z M14.2,77.4h11.5v9.3H14.2V77.4z M25.7,88.8v7.7h-4L25.7,88.8z M26,88.6l2.8,7.9H26V88.6z M33.5,94.1l3.3,2.4
					h-5.2L33.5,94.1z M37.7,97.2c0.2,0.1,0.4,0.1,0.6,0l0.5-0.4h10v6.1H37.2v-6L37.7,97.2z M39.1,96.5l6.3-4.9
					c0.1-0.1,0.1-0.2,0.2-0.3l1.1-4.4h2.1v9.6H39.1z M49,87h11.3v9.6H49V87z M49,86.7v-9.3h11.3v9.3H49z M60.5,77.4H72v9.3H60.5
					V77.4z M72.3,77.4h11.3v9.3H72.3V77.4z M83.8,77.4h2v9.3h-2V77.4z M83.8,77.2v-9.3h2v9.3H83.8z M83.8,67.6v-9.3h2v9.3L83.8,67.6
					L83.8,67.6z M83.8,58v-9.6h2V58H83.8z M83.5,58h-6.1v-3.2c0-0.3-0.2-0.5-0.5-0.5h-4.7v-5.9h11.3V58z M72,54.4h-1.2
					c-0.3,0-0.5,0.2-0.5,0.5V58h-2.7v-8.6c0-0.3-0.2-0.5-0.5-0.5h-5.9c-0.3,0-0.5,0.2-0.5,0.5V58h-0.2v-9.6H72V54.4z M60.5,48.3
					v-9.3H72v9.3L60.5,48.3L60.5,48.3z M60.5,38.7v-9.1H72v9.1H60.5z M60.5,29.4v-9.3H72v9.3L60.5,29.4L60.5,29.4z M60.3,29.4H49
					v-9.3h11.3V29.4z M48.7,29.4h-4c-0.4-3.5-2-6.7-4.4-9.3h8.4V29.4z M37.2,22v-1.9h2L37.2,22z M37,22.2l-7.6,7.2h-1.2v-9.3h1.5
					v5.6c0,0.2,0.1,0.4,0.3,0.4c0.1,0,0.1,0,0.2,0c0.1,0,0.2,0,0.3-0.1l6.3-6H37V22.2z M35.6,19.8h-5V16c2.3,0.1,4.6,0.9,6.4,2.4
					v0.2L35.6,19.8z M35.4,20.1l-4.7,4.5v-4.5H35.4z M30.3,15h-0.1c-0.3,0-0.5,0.2-0.5,0.5v4.4h-1.5v-4.7c0-0.1-0.1-0.3-0.1-0.3
					c-0.1-0.1-0.2-0.1-0.3-0.1c-0.6,0-1.1,0-1.7,0.1v-4.2h11v6.6C35,15.7,32.7,15,30.3,15L30.3,15z M27.2,15.6v4.2H26v-4.1
					C26.4,15.7,26.8,15.6,27.2,15.6L27.2,15.6z M25.7,19.8h-8.6c2.3-2.2,5.3-3.7,8.6-4.1V19.8z M25.7,20.1v9.3H14.2v-6
					c0.7-1.2,1.6-2.3,2.6-3.3H25.7z M14.2,21.6v-1.6h1.3C15,20.6,14.6,21.1,14.2,21.6L14.2,21.6z M14,22c-1.5,2.2-2.5,4.7-2.8,7.4
					H2.7v-9.3H14V22z M2.5,29.4H1v-9.3h1.5V29.4z M1,87h1.5v9.6H1V87z M2.7,87h7.6v9.6H2.7V87z M11.3,87H14v9.6h-2.7V87z M14,96.8
					v0.6l-2.7,4.4v-4.9H14z M14,99.2v3.7h-2.3L14,99.2z M14.2,98.8l1.3-2.1h1.6l2.6,2.3c0.1,0.1,0.3,0.1,0.4,0.1
					c0.1,0,0.3-0.1,0.3-0.3l1.1-2.2h4.2v6.1H14.2V98.8z M26,96.8h2.9l0.5,1.4c0.1,0.2,0.2,0.3,0.4,0.3c0.2,0,0.4,0,0.5-0.2l1.2-1.5
					H37v6.1H26L26,96.8L26,96.8z M37,103.9v2.2H26v-2.2H37z M37.2,103.9h11.5v2.2H37.2V103.9z M49,103.9c0.3,0,0.5-0.2,0.5-0.5
					s-0.2-0.5-0.5-0.5v-6.1h11.3v9.3H49V103.9z M60.5,96.8H72v9.3H60.5V96.8z M60.5,96.5V87H72v9.6H60.5z M72.3,87h11.3v9.6H72.3V87
					z M83.8,87h2v9.6h-2V87z M85.7,48.3h-2v-9.3h2V48.3z M83.5,48.3H72.3v-9.3h11.3V48.3z M72.3,38.7v-9.1h11.3v9.1H72.3z
					 M72.3,19.8v-1.8l1.8,1.8H72.3z M60.3,19.8H49v-9.3h11.3V19.8z M48.7,19.8h-8.6c-0.2-0.2-0.5-0.2-0.7,0h-2.3v-0.2l0.9-0.9
					c0.1-0.1,0.2-0.2,0.2-0.4c0-0.1-0.1-0.3-0.2-0.4c-0.3-0.3-0.6-0.5-0.9-0.8v-6.8h11.5L48.7,19.8L48.7,19.8z M37.2,10.3V1h11.5
					v9.3H37.2z M37,10.3H26V1h11V10.3z M25.7,10.3H14.2V1h11.5V10.3z M25.7,10.5v4.2c-3.9,0.5-7.4,2.4-10,5.1h-1.5v-9.3H25.7z
					 M14,19.8H2.7v-9.3H14V19.8z M2.5,19.8H1v-9.3h1.5V19.8z M1,96.8h1.5v9.3H1V96.8z M2.7,96.8h7.6v6.6c0,0.3,0.2,0.5,0.5,0.5H14
					v2.2H2.7V96.8z M14.2,103.9h11.5v2.2H14.2V103.9z M25.7,106.3v8.8H14.2v-8.8H25.7z M26,106.3h11v8.8H26V106.3z M37.2,106.3h11.5
					v8.8H37.2V106.3z M49,106.3h11.3v8.8H49V106.3z M60.5,106.3H72v8.8H60.5V106.3z M72.3,106.1v-9.3h11.3v9.3H72.3z M83.8,96.8h2
					v9.3h-2V96.8z M85.7,38.7h-2v-9.1h0.1l0.3,0.3c0.9,0.9,1.6,2.6,1.6,3.8L85.7,38.7L85.7,38.7z M56.8,2.6l3.5,3.5v4.2H49V1h4
					C54.2,1,55.9,1.7,56.8,2.6L56.8,2.6z M14,1v9.3H2.7V1C2.8,1,2.9,1,3,1H14z M2.5,1.1v9.2H1V3C1,2.1,1.6,1.3,2.5,1.1L2.5,1.1z
					 M1,113.1v-6.8h1.5v8.7C1.6,114.8,1,114,1,113.1L1,113.1z M2.7,115.1v-8.8H14v8.8H3C2.9,115.1,2.8,115.1,2.7,115.1L2.7,115.1z
					 M83.8,115.1v-8.8h2v6.8C85.7,114.2,84.8,115.1,83.8,115.1L83.8,115.1z"/>
			</g>
		</g>
	</g>
</g>
</svg>
