<?xml version="1.0" encoding="UTF-8"?>
<!-- Generator: Adobe Illustrator 19.2.0, SVG Export Plug-In . SVG Version: 6.00 Build 0)  -->
<svg version="1.1" id="Layer_1" xmlns:sketch="http://www.bohemiancoding.com/sketch/ns" xmlns="http://www.w3.org/2000/svg" xmlns:xlink="http://www.w3.org/1999/xlink" x="0px" y="0px" viewBox="0 0 282 282" style="enable-background:new 0 0 282 282;" xml:space="preserve">
<style type="text/css">
	.st0{fill:#f8f8f8;stroke:#222A37;stroke-width:2;stroke-dasharray:24;}
</style>
<title>Page 1 Copy 4 + Oval 7 Copy 8</title>
<desc>Created with Sketch.</desc>
<g id="Welcome" sketch:type="MSPage">
	<g id="Product-v3" transform="translate(-127.000000, -3048.000000)" sketch:type="MSArtboardGroup">
		<g id="Page-1-Copy-4-_x2B_-Oval-7-Copy-8" transform="translate(127.000000, 3048.000000)" sketch:type="MSLayerGroup">
			<circle id="Oval-7-Copy-8" sketch:type="MSShapeGroup" class="st0" cx="141" cy="141" r="141">
			</circle>
			<g id="Page-1-Copy-4" transform="translate(75.000000, 88.000000)" sketch:type="MSShapeGroup">
				<path id="Fill-1" d="M41,27.4c-7.7,0-14,6.3-14,14c0,7.7,6.3,14,14,14c7.7,0,14-6.3,14-14C55,33.7,48.7,27.4,41,27.4L41,27.4z       M41,53.2c-6.5,0-11.9-5.3-11.9-11.8c0-6.5,5.3-11.9,11.9-11.9c6.5,0,11.9,5.3,11.9,11.9C52.9,47.9,47.6,53.2,41,53.2L41,53.2z"/>
				<path id="Fill-2" d="M64.3,61.8l3.5-4.9l9.8,1.4l3-9.5l-8.8-4.5l0-6.1l8.7-4.6l-3.1-9.4l-9.7,1.5L64,20.7l4.3-8.8l-8.1-5.8      l-7,6.9l-5.8-1.8l-1.7-9.7l-10,0.1l-1.6,9.7l-5.8,1.9l-7.1-6.8l-8,5.9l4.4,8.8L14.2,26l-9.8-1.4l-3,9.5l8.8,4.5l0,6.1l-8.7,4.6      l3.1,9.4l9.7-1.5l3.6,4.9l-4.3,8.8l8.1,5.8l7-6.9l5.8,1.8l1.7,9.7l10-0.1l1.6-9.7l5.8-1.9l7.1,6.8l8-5.9L64.3,61.8z M54.2,67.2      L46,69.9l-1.5,9.2l-6.4,0L36.4,70l-8.2-2.6l-6.6,6.6l-5.2-3.7l4.1-8.4l-5.1-6.9l-9.2,1.4l-2-6.1l8.3-4.4l-0.1-8.6L4,33l1.9-6.1      l9.3,1.3l5-7L16,12.9l5.2-3.8l6.7,6.5l8.2-2.7l1.5-9.2l6.4,0l1.6,9.2l8.2,2.6l6.6-6.6l5.2,3.7l-4.1,8.4l5.1,6.9l9.2-1.4l2,6.1      l-8.3,4.4l0.1,8.6l8.3,4.3l-1.9,6.1l-9.3-1.3l-5,7l4.2,8.3l-5.2,3.8L54.2,67.2z"/>
				<path id="Fill-3" d="M106.9,70.1l3.4-5.2l-5.7-5.6l-5.2,3.4l-3.9-1.6L94.3,55h-8L85,61.1l-3.9,1.6l-5.2-3.4l-5.7,5.6l3.4,5.2      L72.1,74L66,75.2v8l6.1,1.3l1.6,3.9l-3.4,5.2l5.7,5.6l5.2-3.4l3.9,1.6l1.3,6.1h8l1.3-6.1l3.9-1.6l5.2,3.4l5.7-5.6l-3.5-5.2      l1.6-3.9l6.1-1.3v-8l-6.1-1.3L106.9,70.1z M112.5,81.5l-5.6,1.1l-2.5,5.9l3.1,4.7l-3.2,3.2l-4.7-3.1l-5.9,2.5l-1.1,5.5H88      l-1.1-5.5l-5.9-2.5l-4.7,3.1L73,93.3l3.1-4.7l-2.5-5.9l-5.5-1.1V77l5.5-1.1l2.5-5.9L73,65.2l3.2-3.2l4.7,3.1l5.9-2.5l1.1-5.5      h4.6l1.1,5.5l5.9,2.5l4.7-3.1l3.2,3.2l-3.1,4.7l2.5,5.9l5.6,1.1V81.5z"/>
				<path id="Fill-4" d="M90.2,68.8c-5.8,0-10.5,4.7-10.5,10.5c0,5.8,4.7,10.5,10.5,10.5c5.8,0,10.5-4.7,10.5-10.5      C100.7,73.5,96,68.8,90.2,68.8L90.2,68.8z M90.2,87.7c-4.6,0-8.4-3.8-8.4-8.4c0-4.6,3.8-8.4,8.4-8.4c4.6,0,8.4,3.8,8.4,8.4      C98.6,84,94.8,87.7,90.2,87.7L90.2,87.7z"/>
				<path id="Fill-5" d="M106.4,21.4c-5.8,0-10.5,4.7-10.5,10.5c0,5.8,4.7,10.5,10.5,10.5c5.8,0,10.5-4.7,10.5-10.5      S112.2,21.4,106.4,21.4L106.4,21.4z M106.4,40.3c-4.6,0-8.4-3.8-8.4-8.4c0-4.6,3.8-8.4,8.4-8.4c4.6,0,8.4,3.8,8.4,8.4      C114.8,36.6,111,40.3,106.4,40.3L106.4,40.3z"/>
				<path id="Fill-6" d="M125.3,29.9l5.2-3.5l-3-7.4l-6.2,1.1l-2.9-3l1.2-6.1l-7.4-3.1l-3.6,5.1l-4.2,0l-3.5-5.2l-7.4,3l1.1,6.2      l-3,2.9l-6.1-1.2L82.5,26l5.1,3.6l0,4.2l-5.2,3.5l3,7.4l6.2-1.1l2.9,3l-1.2,6.1l7.4,3.1l3.6-5.1l4.2,0l3.5,5.2l7.4-3l-1.1-6.2      l3-2.9l6.1,1.2l3.1-7.3l-5.1-3.6L125.3,29.9z M127.8,38.4l-1.8,4.2l-5.6-1.1l-4.6,4.5l1,5.6l-4.2,1.7l-3.1-4.7l-6.4-0.1      l-3.2,4.6l-4.2-1.8l1.1-5.5l-4.5-4.6l-5.6,1L85,38l4.7-3.1l0.1-6.4l-4.7-3.2l1.8-4.2l5.6,1.1l4.6-4.5l-1-5.6l4.2-1.7l3.1,4.7      l6.4,0.1l3.2-4.7l4.2,1.8l-1.1,5.5l4.5,4.6l5.6-1l1.7,4.2l-4.7,3.1l-0.1,6.4L127.8,38.4z"/>
			</g>
		</g>
	</g>
</g>
</svg>