<?xml version="1.0" standalone="no"?>
<!DOCTYPE svg PUBLIC "-//W3C//DTD SVG 20010904//EN"
 "http://www.w3.org/TR/2001/REC-SVG-20010904/DTD/svg10.dtd">
<svg version="1.0" xmlns="http://www.w3.org/2000/svg"
 width="312.000000pt" height="312.000000pt" viewBox="0 0 312.000000 312.000000"
 preserveAspectRatio="xMidYMid meet">
<metadata>
Created by potrace 1.11, written by Peter Selinger 2001-2013
</metadata>
<g transform="translate(0.000000,312.000000) scale(0.100000,-0.100000)"
fill="#000000" stroke="none">
<path d="M1010 2991 c-63 -37 -140 -81 -170 -98 -60 -33 -287 -165 -335 -194
-16 -11 -36 -22 -44 -25 -7 -4 -58 -33 -112 -64 l-99 -57 387 -223 c214 -123
412 -238 441 -257 28 -18 53 -29 53 -25 5 23 3 1004 -1 1007 -3 2 -57 -27
-120 -64z"/>
<path d="M197 2383 c-2 -4 -4 -248 -3 -541 l1 -534 125 -72 c69 -40 238 -137
375 -216 138 -79 290 -168 340 -197 49 -29 95 -53 101 -53 11 0 89 44 279 155
89 52 138 80 205 117 19 11 51 29 70 40 19 11 109 63 198 115 90 52 183 107
205 123 23 15 67 41 97 57 30 17 154 88 275 158 121 70 291 168 378 218 91 52
154 94 149 99 -8 8 -590 346 -802 466 -25 14 -61 35 -81 48 l-35 22 -235 -135
c-129 -74 -339 -196 -467 -269 l-233 -135 -52 30 c-29 16 -68 38 -87 49 -19
11 -75 43 -125 72 -49 29 -106 62 -125 72 -19 11 -123 71 -230 133 -107 62
-212 122 -233 134 -21 12 -49 28 -62 37 -13 8 -25 11 -28 7z"/>
<path d="M2690 1473 c-168 -97 -314 -181 -325 -187 -11 -6 -81 -46 -156 -89
l-135 -78 1 -542 c1 -298 3 -544 4 -547 1 -3 5 0 9 6 4 6 34 27 67 45 33 19
72 41 87 49 14 8 193 111 397 229 l371 214 0 539 c0 296 -3 538 -7 538 -5 0
-145 -80 -313 -177z"/>
</g>
</svg>
