<?xml version="1.0" encoding="UTF-8" standalone="no"?>
<svg width="21px" height="24px" viewBox="0 0 21 24" version="1.1" xmlns="http://www.w3.org/2000/svg" xmlns:xlink="http://www.w3.org/1999/xlink" xmlns:sketch="http://www.bohemiancoding.com/sketch/ns">
    <!-- Generator: Sketch 3.4.4 (17249) - http://www.bohemiancoding.com/sketch -->
    <title>Fill 1 + Fill 2</title>
    <desc>Created with Sketch.</desc>
    <defs></defs>
    <g id="Welcome" stroke="none" stroke-width="1" fill="none" fill-rule="evenodd" sketch:type="MSPage">
        <g id="Blog-Detail" sketch:type="MSArtboardGroup" transform="translate(-1035.000000, -354.000000)" fill="#151A22">
            <g id="Fill-1-+-Fill-2" sketch:type="MSLayerGroup" transform="translate(1035.000000, 354.000000)">
                <path d="M19.9044407,23.7391304 L1.09555932,23.7391304 C0.506135593,23.7391304 0.0277627119,23.2678261 0.0277627119,22.6876522 L0.0277627119,16.6713043 C0.0277627119,16.0911304 0.506135593,15.6194783 1.09555932,15.6194783 C1.68498305,15.6194783 2.16335593,16.0911304 2.16335593,16.6713043 L2.16335593,21.6358261 L18.8366441,21.6358261 L18.8366441,16.6713043 C18.8366441,16.0911304 19.3150169,15.6194783 19.9044407,15.6194783 C20.4938644,15.6194783 20.9722373,16.0911304 20.9722373,16.6713043 L20.9722373,22.6876522 C20.9722373,23.2678261 20.4938644,23.7391304 19.9044407,23.7391304 L19.9044407,23.7391304 Z" id="Fill-1" sketch:type="MSShapeGroup"></path>
                <path d="M15.7887966,11.208 L11.2535085,15.6726957 C11.1339153,15.7906087 10.9837119,15.8831304 10.8157119,15.9335652 C10.7808305,15.9443478 10.7459492,15.9523478 10.7114237,15.9593043 C10.6445085,15.9728696 10.5722542,15.9808696 10.4971525,15.9808696 C10.3177627,15.9808696 10.1497627,15.9387826 10.0034746,15.8601739 C9.97179661,15.8438261 9.94261017,15.826087 9.91342373,15.8069565 C9.88423729,15.7895652 9.85505085,15.7676522 9.82550847,15.7446957 C9.79632203,15.7227826 9.76998305,15.6998261 9.7450678,15.6737391 L5.20977966,11.2093913 C4.79262712,10.7989565 4.79262712,10.1318261 5.20977966,9.7213913 C5.628,9.31130435 6.30391525,9.31130435 6.7210678,9.7213913 L9.43077966,12.3926957 L9.43077966,1.31234783 C9.43077966,0.731130435 9.912,0.260869565 10.4985763,0.260869565 C11.088,0.260869565 11.5663729,0.731130435 11.5663729,1.31234783 L11.5663729,12.3913043 L14.2789322,9.72 C14.6960847,9.30991304 15.3705763,9.30991304 15.7902203,9.72 C16.2059492,10.1304348 16.2059492,10.7989565 15.7887966,11.208 L15.7887966,11.208 Z" id="Fill-2" sketch:type="MSShapeGroup"></path>
            </g>
        </g>
    </g>
</svg>