<?xml version="1.0" encoding="UTF-8" standalone="no"?>
<svg width="29px" height="29px" viewBox="0 0 29 29" version="1.1" xmlns="http://www.w3.org/2000/svg" xmlns:xlink="http://www.w3.org/1999/xlink" xmlns:sketch="http://www.bohemiancoding.com/sketch/ns">
    <!-- Generator: Sketch 3.4.4 (17249) - http://www.bohemiancoding.com/sketch -->
    <title>Page 1 Copy</title>
    <desc>Created with Sketch.</desc>
    <defs></defs>
    <g id="Welcome" stroke="none" stroke-width="1" fill="none" fill-rule="evenodd" sketch:type="MSPage">
        <g id="Home-Mobile" sketch:type="MSArtboardGroup" transform="translate(-25.000000, -2806.000000)" fill="#222A37">
            <g id="Page-1-Copy" sketch:type="MSLayerGroup" transform="translate(25.000000, 2806.000000)">
                <path d="M14.5,6.61956522 C14.9417246,6.61956522 15.2880435,6.27324638 15.2880435,5.83152174 L15.2880435,1.10326087 C15.2880435,0.661536232 14.9417246,0.315217391 14.5,0.315217391 C14.0582754,0.315217391 13.7119565,0.661536232 13.7119565,1.10326087 L13.7119565,5.83152174 C13.7119565,6.27324638 14.0582754,6.61956522 14.5,6.61956522 L14.5,6.61956522 Z" id="Fill-1" sketch:type="MSShapeGroup"></path>
                <path d="M14.5,28.6847826 C14.9417246,28.6847826 15.2880435,28.3384638 15.2880435,27.8967391 L15.2880435,25.4061014 C16.2025942,25.0908841 16.8641304,24.2078551 16.8641304,23.1684783 L16.8641304,20.3315217 C19.166058,19.416971 20.8043478,17.1482464 20.8043478,14.5 C20.8043478,11.0326087 17.9673913,8.19565217 14.5,8.19565217 C11.0326087,8.19565217 8.19565217,11.0326087 8.19565217,14.5 C8.19565217,17.1482464 9.83394203,19.416971 12.1358696,20.3315217 L12.1358696,23.1684783 C12.1358696,24.2095362 12.7974058,25.0597826 13.7119565,25.4061014 L13.7119565,27.8967391 C13.7119565,28.3384638 14.0582754,28.6847826 14.5,28.6847826 L14.5,28.6847826 Z M13.7119565,20.7421449 C13.964971,20.7732464 14.2469855,20.8043478 14.5,20.8043478 C14.7530145,20.8043478 15.035029,20.7732464 15.2880435,20.7421449 L15.2880435,23.1684783 C15.2880435,23.6102029 14.9417246,23.9565217 14.5,23.9565217 C14.0582754,23.9565217 13.7119565,23.6102029 13.7119565,23.1684783 L13.7119565,20.7421449 Z M14.5,9.77173913 C17.1171449,9.77173913 19.2282609,11.8828551 19.2282609,14.5 C19.2282609,17.1171449 17.1171449,19.2282609 14.5,19.2282609 C11.8828551,19.2282609 9.77173913,17.1171449 9.77173913,14.5 C9.77173913,11.8828551 11.8828551,9.77173913 14.5,9.77173913 L14.5,9.77173913 Z" id="Fill-2" sketch:type="MSShapeGroup"></path>
                <path d="M9.48762319,7.37650725 C9.64523188,7.62910145 9.89824638,7.78671014 10.1806812,7.78671014 C10.3067681,7.78671014 10.4643768,7.7556087 10.5581014,7.69172464 C10.935942,7.47149275 11.062029,6.99866667 10.8422174,6.61956522 L8.47808696,2.52173913 C8.25785507,2.14431884 7.78502899,2.01781159 7.40592754,2.23762319 C7.02850725,2.45785507 6.902,2.93068116 7.12181159,3.30978261 L9.48762319,7.37650725 Z" id="Fill-3" sketch:type="MSShapeGroup"></path>
                <path d="M20.5202319,26.5093623 C20.6778406,26.7623768 20.9308551,26.9199855 21.2132899,26.9199855 C21.3393768,26.9199855 21.4969855,26.8888841 21.5907101,26.8245797 C21.9685507,26.6047681 22.0946377,26.131942 21.8748261,25.7524203 L19.5106957,21.6545942 C19.2904638,21.2771739 18.8176377,21.1506667 18.4385362,21.3708986 C18.0611159,21.5907101 17.9346087,22.0635362 18.1544203,22.4426377 L20.5202319,26.5093623 Z" id="Fill-4" sketch:type="MSShapeGroup"></path>
                <path d="M18.4402174,7.66062319 C18.5667246,7.72282609 18.6932319,7.7556087 18.8176377,7.7556087 C19.1017536,7.7556087 19.353087,7.62910145 19.5106957,7.3454058 L21.8748261,3.24757971 C22.0946377,2.86973913 21.9698116,2.39691304 21.5907101,2.17542029 C21.2132899,1.95518841 20.7404638,2.08001449 20.5185507,2.45953623 L18.1544203,6.55736232 C17.9362899,6.96588406 18.0627971,7.46981159 18.4402174,7.66062319 L18.4402174,7.66062319 Z" id="Fill-5" sketch:type="MSShapeGroup"></path>
                <path d="M7.4076087,26.7934783 C7.53411594,26.8556812 7.66062319,26.8888841 7.78502899,26.8888841 C8.06914493,26.8888841 8.32047826,26.7623768 8.47808696,26.4782609 L10.8422174,22.3804348 C11.062029,22.0030145 10.9372029,21.5301884 10.5581014,21.3082754 C10.1806812,21.0884638 9.70785507,21.2132899 9.48594203,21.5923913 L7.12181159,25.6902174 C6.90368116,26.1008406 7.03018841,26.5736667 7.4076087,26.7934783 L7.4076087,26.7934783 Z" id="Fill-6" sketch:type="MSShapeGroup"></path>
                <path d="M1.10326087,15.2880435 L5.83152174,15.2880435 C6.27324638,15.2880435 6.61956522,14.9417246 6.61956522,14.5 C6.61956522,14.0582754 6.27324638,13.7119565 5.83152174,13.7119565 L1.10326087,13.7119565 C0.661536232,13.7119565 0.315217391,14.0582754 0.315217391,14.5 C0.315217391,14.9417246 0.661536232,15.2880435 1.10326087,15.2880435 L1.10326087,15.2880435 Z" id="Fill-7" sketch:type="MSShapeGroup"></path>
                <path d="M22.3804348,14.5 C22.3804348,14.9417246 22.7267536,15.2880435 23.1684783,15.2880435 L27.8967391,15.2880435 C28.3384638,15.2880435 28.6847826,14.9417246 28.6847826,14.5 C28.6847826,14.0582754 28.3384638,13.7119565 27.8967391,13.7119565 L23.1684783,13.7119565 C22.7267536,13.7119565 22.3804348,14.0582754 22.3804348,14.5 L22.3804348,14.5 Z" id="Fill-8" sketch:type="MSShapeGroup"></path>
                <path d="M7.66062319,18.4402174 C7.4403913,18.0627971 6.96756522,17.9362899 6.58846377,18.1561014 L2.49063768,20.5202319 C2.1127971,20.7404638 1.98671014,21.2132899 2.20652174,21.5923913 C2.36413043,21.8454058 2.61714493,22.0030145 2.89915942,22.0030145 C3.02566667,22.0030145 3.18327536,21.9714928 3.277,21.9076087 L7.37482609,19.5434783 C7.75392754,19.2904638 7.88043478,18.8176377 7.66062319,18.4402174 L7.66062319,18.4402174 Z" id="Fill-9" sketch:type="MSShapeGroup"></path>
                <path d="M21.3393768,10.5597826 C21.4969855,10.8127971 21.75,10.9704058 22.0324348,10.9704058 C22.158942,10.9704058 22.3165507,10.9388841 22.4098551,10.875 L26.5076812,8.51086957 C26.8855217,8.29105797 27.012029,7.81823188 26.7917971,7.43871014 C26.5719855,7.06128986 26.0991594,6.93478261 25.7196377,7.1545942 L21.6218116,9.51872464 C21.2460725,9.70953623 21.1195652,10.1823623 21.3393768,10.5597826 L21.3393768,10.5597826 Z" id="Fill-10" sketch:type="MSShapeGroup"></path>
                <path d="M2.49063768,8.47976812 L6.58846377,10.8438986 C6.71497101,10.9061014 6.84105797,10.9388841 6.96588406,10.9388841 C7.25,10.9388841 7.50133333,10.8127971 7.65894203,10.5286812 C7.87875362,10.1508406 7.75392754,9.67801449 7.37482609,9.45652174 L3.277,7.0923913 C2.89915942,6.87257971 2.42633333,6.99698551 2.20484058,7.37650725 C1.98671014,7.78502899 2.11111594,8.25785507 2.49063768,8.47976812 L2.49063768,8.47976812 Z" id="Fill-11" sketch:type="MSShapeGroup"></path>
                <path d="M26.1008406,22.0030145 C26.3845362,22.0030145 26.6358696,21.8765072 26.7934783,21.5923913 C27.0132899,21.214971 26.8888841,20.7421449 26.5093623,20.5202319 L22.4115362,18.1561014 C22.0341159,17.9362899 21.5612899,18.0611159 21.3393768,18.4402174 C21.1195652,18.8176377 21.2443913,19.2904638 21.6234928,19.5123768 L25.7213188,21.8765072 C25.8167246,21.9387101 25.9743333,22.0030145 26.1008406,22.0030145 L26.1008406,22.0030145 Z" id="Fill-12" sketch:type="MSShapeGroup"></path>
            </g>
        </g>
    </g>
</svg>