<?xml version="1.0" encoding="utf-8"?>
<!-- Generator: Adobe Illustrator 19.2.0, SVG Export Plug-In . SVG Version: 6.00 Build 0)  -->
<svg version="1.1"
	 id="svg3070" inkscape:version="0.48.0 r9654" sodipodi:docname="New document 4" xmlns:cc="http://creativecommons.org/ns#" xmlns:dc="http://purl.org/dc/elements/1.1/" xmlns:inkscape="http://www.inkscape.org/namespaces/inkscape" xmlns:rdf="http://www.w3.org/1999/02/22-rdf-syntax-ns#" xmlns:sodipodi="http://sodipodi.sourceforge.net/DTD/sodipodi-0.dtd" xmlns:svg="http://www.w3.org/2000/svg"
	 xmlns="http://www.w3.org/2000/svg" xmlns:xlink="http://www.w3.org/1999/xlink" x="0px" y="0px" viewBox="0 0 77.1 79.5"
	 style="enable-background:new 0 0 77.1 79.5;" xml:space="preserve">
<style type="text/css">
	.st0{fill:#0079B6;}
	.st1{fill:#FFFFFF;}
</style>
<sodipodi:namedview  bordercolor="#666666" borderopacity="1.0" fit-margin-bottom="0" fit-margin-left="0" fit-margin-right="0" fit-margin-top="0" id="base" inkscape:current-layer="layer1" inkscape:cx="142.93233" inkscape:cy="33.703355" inkscape:document-units="px" inkscape:pageopacity="0.0" inkscape:pageshadow="2" inkscape:window-height="750" inkscape:window-maximized="1" inkscape:window-width="1280" inkscape:window-x="-8" inkscape:window-y="-8" inkscape:zoom="2.8" pagecolor="#ffffff" showgrid="false">
	</sodipodi:namedview>
<g id="layer1" transform="translate(-200.55198,-393.96227)" inkscape:groupmode="layer" inkscape:label="Layer 1">
	<g id="g3019" transform="matrix(1.018827,0,0,-1.018827,170.5996,498.03288)">
		<path id="path14" inkscape:connector-curvature="0" class="st0" d="M32.5,93.2c0,2.8,2.3,5.1,5.2,5.1h59.7c2.9,0,5.2-2.3,5.2-5.1
			V32.8c0-2.8-2.3-5.1-5.2-5.1H37.7c-2.9,0-5.2,2.3-5.2,5.1V93.2z"/>
		<path id="path28" inkscape:connector-curvature="0" class="st1" d="M53.8,39.2v31.9H43.2V39.2H53.8z M48.5,75.4c3.7,0,6,2.4,6,5.5
			c-0.1,3.1-2.3,5.5-5.9,5.5c-3.6,0-6-2.4-6-5.5C42.6,77.8,44.8,75.4,48.5,75.4L48.5,75.4L48.5,75.4z"/>
		<path id="path30" inkscape:connector-curvature="0" class="st1" d="M59.6,39.2h10.6V57c0,1,0.1,1.9,0.3,2.6
			c0.8,1.9,2.5,3.9,5.4,3.9c3.8,0,5.4-2.9,5.4-7.2v-17h10.6v18.3c0,9.8-5.2,14.3-12.2,14.3c-5.7,0-8.2-3.2-9.6-5.4h0.1v4.6H59.6
			C59.8,68.1,59.6,39.2,59.6,39.2L59.6,39.2z"/>
	</g>
</g>
</svg>
