<?xml version="1.0" encoding="UTF-8" standalone="no"?>
<svg width="182px" height="39px" viewBox="0 0 182 39" version="1.1" xmlns="http://www.w3.org/2000/svg" xmlns:xlink="http://www.w3.org/1999/xlink" xmlns:sketch="http://www.bohemiancoding.com/sketch/ns">
    <!-- Generator: Sketch 3.4.4 (17249) - http://www.bohemiancoding.com/sketch -->
    <title>msft_logo_print copy 2</title>
    <desc>Created with Sketch.</desc>
    <defs></defs>
    <g id="Welcome" stroke="none" stroke-width="1" fill="none" fill-rule="evenodd" sketch:type="MSPage">
        <g id="Home-v3" sketch:type="MSArtboardGroup" transform="translate(-559.000000, -3473.000000)">
            <g id="msft_logo_print-copy-2" sketch:type="MSLayerGroup" transform="translate(559.000000, 3473.000000)">
                <path d="M0,0 L18.4887126,0 C18.4876022,6.18428571 18.4887126,12.3685714 18.4876022,18.5528571 L0,18.5528571 L0,0" id="Fill-1" fill="#F25022" sketch:type="MSShapeGroup"></path>
                <path d="M20.3764491,0 L38.8651617,0 C38.8651617,6.18428571 38.8662721,12.3685714 38.8640513,18.5528571 C32.7022575,18.5517429 26.5393533,18.5528571 20.3775595,18.5528571 C20.3753386,12.3685714 20.3764491,6.18428571 20.3764491,0" id="Fill-3" fill="#80BA01" sketch:type="MSShapeGroup"></path>
                <path d="M166.725991,7.06902857 C168.430506,5.95585714 170.632495,5.85222857 172.553545,6.38262857 C172.570201,7.52811429 172.555766,8.67471429 172.561318,9.82131429 C171.648542,9.41794286 170.574753,9.15497143 169.614228,9.55054286 C168.852471,9.85362857 168.399414,10.6380857 168.280598,11.4225429 C168.137352,12.4176 168.230628,13.4260286 168.206199,14.4266571 C170.15612,14.4311143 172.10604,14.4277714 174.055961,14.4288857 C174.070397,13.1586 174.040415,11.8872 174.072617,10.6169143 C175.398475,10.2380571 176.709896,9.81351429 178.029091,9.4146 C178.040195,11.0882571 178.013545,12.7630286 178.043527,14.4378 C179.361611,14.4188571 180.680805,14.4333429 182,14.4288857 L182,17.6870571 C180.676364,17.6324571 179.351617,17.6725714 178.02798,17.6681143 C178.033533,19.5412286 178.029091,21.4143429 178.030201,23.2885714 C178.0513,24.3259714 177.97468,25.3689429 178.095717,26.403 C178.169005,27.0125143 178.389982,27.6877714 178.959634,28.0031143 C179.913496,28.5390857 181.123868,28.3050857 182,27.7167429 L182,31.0072286 C180.857364,31.5053143 179.580366,31.6568571 178.344454,31.5688286 C177.171836,31.4819143 175.957023,31.0540286 175.191934,30.1180286 C174.308029,29.0605714 174.08039,27.6287143 174.062624,26.2893429 C174.05263,23.4144857 174.063734,20.5396286 174.058182,17.6636571 C172.107151,17.6625429 170.15612,17.6614286 168.206199,17.6647714 C168.203978,22.1765143 168.205088,26.6882571 168.205088,31.2 L164.206419,31.2 C164.206419,26.6893714 164.200866,22.1798571 164.208639,17.6692286 C163.281428,17.6514 162.353106,17.6736857 161.425894,17.6547429 C161.429225,16.5839143 161.433667,15.5119714 161.423673,14.4400286 C162.346443,14.4188571 163.270323,14.4277714 164.195314,14.4344571 C164.263051,13.0104 164.046516,11.5451143 164.470702,10.1578286 C164.829372,8.90537143 165.626663,7.77548571 166.725991,7.06902857" id="Fill-4" fill="#FFFFFF" sketch:type="MSShapeGroup"></path>
                <path d="M81.1138133,7.30302857 C81.9199878,7.18045714 82.7927883,7.4568 83.3269067,8.08971429 C83.953191,8.7828 84.068676,9.88594286 83.6045149,10.6960286 C83.0914948,11.6097429 81.9433069,12.0342857 80.9428066,11.8147714 C79.9045516,11.6275714 79.0395241,10.6592571 79.0861623,9.57951429 C79.0561806,8.44294286 80.0033801,7.43005714 81.1138133,7.30302857" id="Fill-5" fill="#FFFFFF" sketch:type="MSShapeGroup"></path>
                <path d="M50.4691885,7.8 L56.2845272,7.8 C58.0945333,12.4120286 59.9178646,17.0196 61.7300915,21.6316286 C62.1931422,22.7849143 62.6262111,23.9515714 63.1114704,25.0959429 C65.4400488,19.3328571 67.8019402,13.5842571 70.1127517,7.81337143 C71.977169,7.78328571 73.8426968,7.80668571 75.7082245,7.80222857 C75.7037828,15.6011143 75.7060037,23.4 75.7071141,31.1988857 C74.3612691,31.1955429 73.0165345,31.2100286 71.6717999,31.1910857 C71.6862355,25.4358 71.6706894,19.6805143 71.6784625,13.9241143 C71.6806833,13.6656 71.6717999,13.4070857 71.6540329,13.1485714 C71.5751922,13.2689143 71.5052349,13.3937143 71.4441611,13.5229714 C69.1333496,19.4142 66.7781208,25.2887143 64.4806345,31.1855143 C63.5234411,31.2200571 62.5651373,31.1877429 61.6068334,31.2033429 C59.2227334,25.3121143 56.868615,19.4075143 54.4967297,13.5118286 C54.4345455,13.3892571 54.3679195,13.2700286 54.2957413,13.1552571 C54.2468822,15.6768857 54.2879683,18.2007429 54.2746431,20.7223714 C54.2757535,24.2145429 54.2724222,27.7067143 54.2757535,31.1988857 C53.0065284,31.2022286 51.7373032,31.1988857 50.4691885,31.2 C50.4680781,23.4 50.4669677,15.6 50.4691885,7.8" id="Fill-6" fill="#FFFFFF" sketch:type="MSShapeGroup"></path>
                <path d="M92.1182062,14.4132857 C94.0481391,13.8617143 96.1290909,13.884 98.0579134,14.4311143 C98.4554484,14.5425429 98.8407688,14.6974286 99.1983282,14.9080286 C99.1761196,16.1861143 99.1983282,17.4653143 99.1861135,18.7445143 C97.8969005,17.7561429 96.2612325,17.1299143 94.6222331,17.3371714 C93.3208054,17.4552857 92.0793411,18.1327714 91.3009274,19.188 C90.3004271,20.4961714 90.069457,22.2333429 90.2415741,23.8334571 C90.3703844,25.0859143 90.8867358,26.3372571 91.8572544,27.1674 C92.8655278,28.0666286 94.2791092,28.3853143 95.5983038,28.2850286 C96.9019524,28.1346 98.1323124,27.5808 99.1861135,26.8074857 C99.1972178,28.0187143 99.1805613,29.2299429 99.1949969,30.4411714 C97.5604393,31.4172857 95.6005247,31.6691143 93.7294448,31.5766286 C91.815058,31.4752286 89.9062233,30.7476 88.5204027,29.3970857 C87.0146553,27.9407143 86.1973764,25.8636857 86.1007688,23.7833143 C86.0030506,21.6204857 86.4416718,19.3640571 87.6820256,17.5578 C88.7213911,16.0167429 90.3470653,14.9258571 92.1182062,14.4132857" id="Fill-7" fill="#FFFFFF" sketch:type="MSShapeGroup"></path>
                <path d="M119.209445,14.1246857 C121.128273,13.8795429 123.152593,13.9887429 124.933728,14.8021714 C126.479451,15.5019429 127.73202,16.7956286 128.42604,18.3444857 C129.166699,19.9936286 129.346589,21.8455714 129.22111,23.634 C129.097852,25.3800857 128.551519,27.1295143 127.463295,28.5168 C126.34953,29.9898857 124.670555,30.9882857 122.872764,31.3593429 C121.335924,31.6802571 119.728017,31.6791429 118.191178,31.3548857 C116.3523,30.9604286 114.650006,29.8896 113.571775,28.3318286 C112.305882,26.5266857 111.946101,24.2312571 112.107114,22.0684286 C112.215937,20.2332 112.784478,18.3834857 113.952654,16.9438286 C115.231873,15.3314571 117.194009,14.3798571 119.209445,14.1246857 Z M120.40205,17.3093143 C121.603539,17.2302 122.882758,17.5711714 123.746675,18.4481143 C124.670555,19.3596 125.028115,20.6822571 125.126943,21.9436286 C125.198011,23.3242286 125.141379,24.7627714 124.563954,26.0419714 C124.181965,26.9044286 123.482392,27.6331714 122.599597,27.9786 C121.566894,28.3764 120.406492,28.3998 119.340476,28.1223429 C118.255583,27.8359714 117.335034,27.0492857 116.834228,26.0475429 C116.190177,24.7572 116.093569,23.2651714 116.226821,21.8500286 C116.347858,20.5630286 116.794253,19.2392571 117.771434,18.3511714 C118.47989,17.6870571 119.445967,17.3628 120.40205,17.3093143 Z" id="Fill-8" fill="#FFFFFF" sketch:type="MSShapeGroup"></path>
                <path d="M135.797096,14.1581143 C137.645967,13.8316286 139.581452,14.0712 141.331495,14.7364286 C141.333716,15.9666 141.331495,17.1956571 141.332605,18.4247143 C140.110018,17.5812 138.616486,17.1276857 137.132947,17.1800571 C136.385625,17.2090286 135.563905,17.5266 135.223002,18.2397429 C134.952056,18.9450857 135.139719,19.8699429 135.802648,20.2922571 C136.9364,21.0533143 138.288908,21.3764571 139.463746,22.0584 C140.388737,22.5798857 141.285967,23.2618286 141.75457,24.2446286 C142.635143,26.0854286 142.262038,28.5179143 140.714094,29.8907143 C139.236107,31.2768857 137.107407,31.6602 135.149713,31.5866571 C133.759451,31.4964 132.362526,31.2211714 131.084417,30.6506571 C131.089969,29.3569714 131.076644,28.0644 131.09108,26.7718286 C132.165979,27.5551714 133.406333,28.1156571 134.718865,28.3429714 C135.632752,28.4922857 136.626589,28.4989714 137.478292,28.0889143 C138.29335,27.6822 138.439927,26.52 137.955778,25.8090857 C137.502721,25.2608571 136.837572,24.9588857 136.210177,24.6624857 C135.032007,24.1309714 133.793874,23.6863714 132.758951,22.8896571 C132.031617,22.3202571 131.480842,21.5179714 131.265418,20.6131714 C130.945613,19.2793714 131.045552,17.7762 131.818414,16.6106571 C132.701208,15.2523429 134.234716,14.4378 135.797096,14.1581143" id="Fill-9" fill="#FFFFFF" sketch:type="MSShapeGroup"></path>
                <path d="M151.079988,14.1191143 C153.075436,13.8706286 155.194143,14.0054571 157.015253,14.9280857 C158.603173,15.7248 159.834643,17.1644571 160.449823,18.8292 C160.930641,20.1028286 161.099426,21.4778571 161.071666,22.8339429 C161.074997,24.8597143 160.529774,26.9389714 159.26277,28.5457714 C158.076827,30.1013143 156.262379,31.1119714 154.346882,31.4295429 C152.473581,31.7337429 150.49479,31.6546286 148.714765,30.9515143 C146.911422,30.2394857 145.412337,28.7864571 144.6528,26.9969143 C143.861062,25.1728286 143.777779,23.1203143 144.024295,21.1714286 C144.283026,19.2225429 145.162489,17.3171143 146.661574,16.0212 C147.889713,14.9392286 149.47097,14.3263714 151.079988,14.1191143 Z M152.159329,17.3126571 C153.288639,17.2335429 154.49457,17.4954 155.362929,18.2609143 C156.163551,18.9272571 156.606614,19.9256571 156.809823,20.9307429 C157.038572,22.1096571 157.036351,23.3298 156.843136,24.5142857 C156.689896,25.3968 156.385638,26.2770857 155.809323,26.9757429 C155.228566,27.6777429 154.364649,28.1056286 153.472971,28.2371143 C152.515778,28.3808571 151.507505,28.3117714 150.612495,27.9251143 C149.646419,27.5150571 148.897987,26.676 148.503783,25.7110286 C148.029628,24.5610857 147.935241,23.2874571 148.029628,22.0572857 C148.120683,20.8661143 148.457145,19.6437429 149.24111,18.7177714 C149.956229,17.8530857 151.053337,17.3750571 152.159329,17.3126571 Z" id="Fill-10" fill="#FFFFFF" sketch:type="MSShapeGroup"></path>
                <path d="M108.139536,14.6862857 C109.243307,14.0210571 110.645784,13.9653429 111.850604,14.3720571 C111.845052,15.7103143 111.850604,17.0485714 111.847273,18.3868286 C111.058865,17.8742571 110.075021,17.6547429 109.144478,17.7494571 C108.009616,17.8787143 107.110165,18.7534286 106.643783,19.7562857 C106.137425,20.8182 106.041928,22.0194 106.074131,23.1804857 C106.074131,25.8536571 106.075241,28.5268286 106.074131,31.2 L102.132093,31.2 C102.128761,25.6129714 102.136534,20.0248286 102.128761,14.4378 C103.444625,14.4210857 104.760488,14.4277714 106.076351,14.4344571 C106.070799,15.3938571 106.076351,16.3532571 106.07302,17.3137714 C106.500537,16.2696857 107.136815,15.2556857 108.139536,14.6862857" id="Fill-11" fill="#FFFFFF" sketch:type="MSShapeGroup"></path>
                <path d="M79.4492739,14.4344571 C80.7751312,14.4288857 82.1020988,14.4155143 83.4279561,14.4411429 C83.41241,20.0270571 83.4268456,25.6140857 83.4212935,31.2 L79.4514948,31.2 C79.4481635,25.6118571 79.4526052,20.0237143 79.4492739,14.4344571" id="Fill-12" fill="#FFFFFF" sketch:type="MSShapeGroup"></path>
                <path d="M0,20.4460286 C6.16290421,20.4482571 12.3258084,20.4449143 18.4887126,20.4482571 C18.4898231,26.6325429 18.4887126,32.8157143 18.4887126,39 L0,39 L0,20.4460286" id="Fill-16" fill="#02A4EF" sketch:type="MSShapeGroup"></path>
                <path d="M20.3775595,20.4482571 C26.5393533,20.4460286 32.7022575,20.4471429 38.8651617,20.4471429 L38.8651617,39 L20.3764491,39 C20.3775595,32.8157143 20.3753386,26.6314286 20.3775595,20.4482571" id="Fill-17" fill="#FFB902" sketch:type="MSShapeGroup"></path>
            </g>
        </g>
    </g>
</svg>