<?xml version="1.0" encoding="UTF-8" standalone="no"?>
<svg width="28px" height="21px" viewBox="0 0 28 21" version="1.1" xmlns="http://www.w3.org/2000/svg" xmlns:xlink="http://www.w3.org/1999/xlink" xmlns:sketch="http://www.bohemiancoding.com/sketch/ns">
    <!-- Generator: Sketch 3.4.4 (17249) - http://www.bohemiancoding.com/sketch -->
    <title>Page 1</title>
    <desc>Created with Sketch.</desc>
    <defs></defs>
    <g id="Welcome" stroke="none" stroke-width="1" fill="none" fill-rule="evenodd" sketch:type="MSPage">
        <g id="Blog-Detail" sketch:type="MSArtboardGroup" transform="translate(-1031.000000, -305.000000)" fill="#151A22">
            <g id="Page-1" sketch:type="MSLayerGroup" transform="translate(1031.000000, 305.000000)">
                <path d="M24.4961989,12.2480994 L18.3721491,12.2480994 L18.3721491,10.4983709 L24.4961989,10.4983709 L24.4961989,12.2480994 Z M24.4961989,8.74864245 L18.3721491,8.74864245 L18.3721491,6.99891396 L24.4961989,6.99891396 L24.4961989,8.74864245 Z M24.4961989,5.24918547 L18.3721491,5.24918547 L18.3721491,3.49945698 L24.4961989,3.49945698 L24.4961989,5.24918547 Z M24.4961989,15.7475564 L6.99891396,15.7475564 L6.99891396,13.9978279 L24.4961989,13.9978279 L24.4961989,15.7475564 Z M14.8726922,10.4983709 L8.74864245,10.4983709 L8.74864245,5.24918547 L14.8726922,5.24918547 L14.8726922,10.4983709 Z M16.6224207,3.49945698 L6.99891396,3.49945698 L6.99891396,12.2480994 L16.6224207,12.2480994 L16.6224207,3.49945698 Z M26.2459274,16.6224207 C26.2459274,18.0694461 25.0683601,19.2470134 23.6213346,19.2470134 L7.87377821,19.2470134 C6.42675275,19.2470134 5.24918547,18.0694461 5.24918547,16.6224207 L5.24918547,1.74972849 L26.2459274,1.74972849 L26.2459274,16.6224207 Z M1.74972849,16.6224207 L1.74972849,5.24918547 L3.49945698,5.24918547 L3.49945698,16.6224207 C3.49945698,17.6110173 3.8415289,18.5138772 4.3970677,19.2470134 L4.37432123,19.2470134 C2.92729576,19.2470134 1.74972849,18.0694461 1.74972849,16.6224207 L1.74972849,16.6224207 Z M3.49945698,0 L3.49945698,3.49945698 L0,3.49945698 L0,16.6224207 C0,19.0344214 1.9623205,20.9967419 4.37432123,20.9967419 L7.87377821,20.9967419 L23.6213346,20.9967419 C26.0333353,20.9967419 27.9956558,19.0344214 27.9956558,16.6224207 L27.9956558,0 L3.49945698,0 Z" sketch:type="MSShapeGroup"></path>
            </g>
        </g>
    </g>
</svg>