<?xml version="1.0" encoding="utf-8"?>
<!-- Generator: Adobe Illustrator 19.2.0, SVG Export Plug-In . SVG Version: 6.00 Build 0)  -->
<svg version="1.1" id="Layer_1" xmlns:sketch="http://www.bohemiancoding.com/sketch/ns"
	 xmlns="http://www.w3.org/2000/svg" xmlns:xlink="http://www.w3.org/1999/xlink" x="0px" y="0px" viewBox="0 0 282 282"
	 style="enable-background:new 0 0 282 282;" xml:space="preserve">
<style type="text/css">
	.st0{fill:#F8F8F8;stroke:#222A37;stroke-width:2;stroke-dasharray:24;}
	.st1{clip-path:url(#SVGID_2_);}
	.st2{clip-path:url(#SVGID_4_);}
	.st3{clip-path:url(#SVGID_6_);}
	.st4{clip-path:url(#SVGID_8_);}
	.st5{clip-path:url(#SVGID_10_);}
	.st6{clip-path:url(#SVGID_12_);}
	.st7{clip-path:url(#SVGID_14_);}
	.st8{clip-path:url(#SVGID_16_);}
	.st9{clip-path:url(#SVGID_18_);}
	.st10{clip-path:url(#SVGID_20_);}
	.st11{clip-path:url(#SVGID_22_);}
	.st12{clip-path:url(#SVGID_24_);}
	.st13{display:none;}
	.st14{display:inline;}
	.st15{fill:none;stroke:#000000;stroke-width:1.5;}
	.st16{fill:none;stroke:#000000;stroke-width:1.5;stroke-linecap:round;stroke-linejoin:round;}
	.st17{fill:none;stroke:#000000;stroke-width:3;}
</style>
<title>Page 1 + Oval 7 Copy 8</title>
<desc>Created with Sketch.</desc>
<g id="Welcome" sketch:type="MSPage">
	<g id="Product-v3" transform="translate(-127.000000, -3048.000000)" sketch:type="MSArtboardGroup">
		<g id="Page-1-_x2B_-Oval-7-Copy-8" transform="translate(127.000000, 3048.000000)" sketch:type="MSLayerGroup">
			<circle id="Oval-7-Copy-8" sketch:type="MSShapeGroup" class="st0" cx="141" cy="141" r="141">
			</circle>
		</g>
	</g>
</g>
<g>
	<defs>
		<path id="SVGID_1_" d="M-29.9-809l-2.2-0.2l-1.4,1.6l-1.9-1.1l-2,0.8l-1.2-1.8l-2.2-0.2l-0.3-2.1l-1.9-1.1l0.6-2l-1.2-1.8l1.5-1.5
			l-0.4-2.1l2-0.8l0.6-2l2.2,0.2l1.4-1.6l1.9,1.1l2-0.8l1.2,1.8l2.2,0.2l0.3,2.1l1.9,1.1l-0.6,2l1.2,1.8l-1.5,1.5l0.4,2.1l-2,0.8
			L-29.9-809z M-25.8-817.4l0.8-2.5l-2.3-1.3l-0.4-2.6l-2.6-0.2l-1.5-2.2l-2.4,0.9l-2.3-1.3l-1.8,1.9L-41-825l-0.7,2.5l-2.5,0.9
			l0.4,2.6l-1.8,1.9l1.5,2.2l-0.8,2.5l2.3,1.3l0.4,2.6l2.6,0.2l1.5,2.2l2.4-0.9l2.3,1.3l1.8-1.9l2.6,0.2l0.7-2.5l2.5-0.9l-0.4-2.6
			l1.8-1.9L-25.8-817.4z"/>
	</defs>
	<clipPath id="SVGID_2_">
		<use xlink:href="#SVGID_1_"  style="overflow:visible;"/>
	</clipPath>
	<g class="st1">
		<defs>
			<rect id="SVGID_3_" x="-273" y="-2006" width="1440" height="4767"/>
		</defs>
		<clipPath id="SVGID_4_">
			<use xlink:href="#SVGID_3_"  style="overflow:visible;"/>
		</clipPath>
		
			<rect x="-50.1" y="-831.9" transform="matrix(0.5 -0.866 0.866 0.5 689.3663 -438.3033)" class="st2" width="30.5" height="31.5"/>
	</g>
</g>
<g>
	<defs>
		<path id="SVGID_5_" d="M-40.9-805.8c-5.8-3.4-7.9-10.8-4.6-16.5c3.3-5.7,10.8-7.6,16.6-4.3c5.9,3.4,7.9,10.8,4.6,16.5
			C-27.6-804.3-35-802.4-40.9-805.8z M-23.9-846.7L6.3-899c0.2-0.4,5.3-8.4,5.3-15.2c0.9,0.9,2,1.8,3.3,2.5c1.7,1,3.6,1.7,5.6,2.3
			c2.9,0.8,5.7,1,8.2,0.8c-7,5.7-12.2,14.9-12.5,15.4L-13.9-841c-0.3,0.5-6.4,11.2-8.3,20c-1.1-2.8-3.2-5.2-6-6.8
			c-2.8-1.6-5.9-2.2-8.9-1.7C-30.4-835.6-24.2-846.2-23.9-846.7z M9.8-925.7c1-3.9,3.6-7,7.1-8.8l-2,7.6c-0.2,0.7-0.8,3-0.3,4
			c0.4,1,1.5,1.9,3.1,2.9c1.8,1,3.9,1.8,5.2,2.1c2.1,0.5,7.4,1.5,9.5-0.1c0.9-0.7,1.5-2.9,1.7-3.6l2-7.6c2.2,3.4,2.8,7.4,1.8,11.3
			c-0.9,3.6-3,6-6.2,7.2c-2.9,1.1-6.6,1.1-10.7,0c-2-0.5-3.7-1.3-5.3-2.2C10.5-915.9,8.4-920.5,9.8-925.7z M-21.2-816.7
			c0.2-8.8,8.5-23.4,8.6-23.5l30.2-52.3c0.1-0.1,7.2-12.8,15.8-17.5l0,0c3-1.5,5-4.1,5.9-7.7c1.3-4.8,0.2-9.9-3-13.9l-1-1.2
			l-2.8,10.6c-0.3,1.3-0.8,2.6-1.1,2.8c-1.4,1-5.3,0.5-8.3-0.2c-1.1-0.3-3.1-1-4.7-1.9c-1.3-0.7-2.2-1.5-2.5-2.2
			c-0.1-0.3,0-1.7,0.4-3l2.8-10.6l-1.4,0.6c-4.7,1.8-8.1,5.7-9.4,10.5c-1,3.7-0.4,7.1,1.6,10c1.2,6.5-4.9,16.2-5,16.3l-30.2,52.2
			c-0.1,0.1-8.5,14.7-16.1,19.2l0,0c-2.3,1.1-4.2,2.9-5.6,5.2c-3.7,6.4-1.4,14.8,5.2,18.6c6.6,3.8,15,1.6,18.7-4.8
			C-21.6-811.6-21.1-814.2-21.2-816.7L-21.2-816.7z"/>
	</defs>
	<clipPath id="SVGID_6_">
		<use xlink:href="#SVGID_5_"  style="overflow:visible;"/>
	</clipPath>
	<g class="st3">
		<defs>
			<rect id="SVGID_7_" x="-273" y="-2006" width="1440" height="4767"/>
		</defs>
		<clipPath id="SVGID_8_">
			<use xlink:href="#SVGID_7_"  style="overflow:visible;"/>
		</clipPath>
		
			<rect x="-85.8" y="-891.3" transform="matrix(0.5 -0.866 0.866 0.5 750.6443 -440.3513)" class="st4" width="159.6" height="42.1"/>
	</g>
</g>
<g>
	<defs>
		<path id="SVGID_9_" d="M5.7-891.3c0.7-1.1,2.1-1.5,3.3-0.9c1.2,0.7,1.6,2.2,0.9,3.3l-25.1,43.4c-0.7,1.1-2.1,1.5-3.3,0.8
			s-1.6-2.2-0.9-3.3L5.7-891.3z M-19.2-843.3c1.9,1.1,4.3,0.5,5.4-1.4l25.1-43.4c1.1-1.9,0.4-4.3-1.5-5.4c-1.9-1.1-4.3-0.5-5.4,1.4
			l-25.1,43.4C-21.8-846.8-21.1-844.4-19.2-843.3z"/>
	</defs>
	<clipPath id="SVGID_10_">
		<use xlink:href="#SVGID_9_"  style="overflow:visible;"/>
	</clipPath>
	<g class="st5">
		<defs>
			<rect id="SVGID_11_" x="-273" y="-2006" width="1440" height="4767"/>
		</defs>
		<clipPath id="SVGID_12_">
			<use xlink:href="#SVGID_11_"  style="overflow:visible;"/>
		</clipPath>
		<rect x="-38.7" y="-877.3" transform="matrix(0.5 -0.866 0.866 0.5 749.6479 -438.2922)" class="st6" width="67.9" height="18"/>
	</g>
</g>
<g>
	<defs>
		<path id="SVGID_13_" d="M-29.9-809l-2.2-0.2l-1.4,1.6l-1.9-1.1l-2,0.8l-1.2-1.8l-2.2-0.2l-0.3-2.1l-1.9-1.1l0.6-2l-1.2-1.8
			l1.5-1.5l-0.4-2.1l2-0.8l0.6-2l2.2,0.2l1.4-1.6l1.9,1.1l2-0.8l1.2,1.8l2.2,0.2l0.3,2.1l1.9,1.1l-0.6,2l1.2,1.8l-1.5,1.5l0.4,2.1
			l-2,0.8L-29.9-809z M-25.8-817.4l0.8-2.5l-2.3-1.3l-0.4-2.6l-2.6-0.2l-1.5-2.2l-2.4,0.9l-2.3-1.3l-1.8,1.9L-41-825l-0.7,2.5
			l-2.5,0.9l0.4,2.6l-1.8,1.9l1.5,2.2l-0.8,2.5l2.3,1.3l0.4,2.6l2.6,0.2l1.5,2.2l2.4-0.9l2.3,1.3l1.8-1.9l2.6,0.2l0.7-2.5l2.5-0.9
			l-0.4-2.6l1.8-1.9L-25.8-817.4z"/>
	</defs>
	<clipPath id="SVGID_14_">
		<use xlink:href="#SVGID_13_"  style="overflow:visible;"/>
	</clipPath>
	<g class="st7">
		<defs>
			<rect id="SVGID_15_" x="-273" y="-2006" width="1440" height="4767"/>
		</defs>
		<clipPath id="SVGID_16_">
			<use xlink:href="#SVGID_15_"  style="overflow:visible;"/>
		</clipPath>
		
			<rect x="-50.1" y="-831.9" transform="matrix(0.5 -0.866 0.866 0.5 689.3663 -438.3033)" class="st8" width="30.5" height="31.5"/>
	</g>
</g>
<g>
	<defs>
		<path id="SVGID_17_" d="M-40.9-805.8c-5.8-3.4-7.9-10.8-4.6-16.5c3.3-5.7,10.8-7.6,16.6-4.3c5.9,3.4,7.9,10.8,4.6,16.5
			C-27.6-804.3-35-802.4-40.9-805.8z M-23.9-846.7L6.3-899c0.2-0.4,5.3-8.4,5.3-15.2c0.9,0.9,2,1.8,3.3,2.5c1.7,1,3.6,1.7,5.6,2.3
			c2.9,0.8,5.7,1,8.2,0.8c-7,5.7-12.2,14.9-12.5,15.4L-13.9-841c-0.3,0.5-6.4,11.2-8.3,20c-1.1-2.8-3.2-5.2-6-6.8
			c-2.8-1.6-5.9-2.2-8.9-1.7C-30.4-835.6-24.2-846.2-23.9-846.7z M9.8-925.7c1-3.9,3.6-7,7.1-8.8l-2,7.6c-0.2,0.7-0.8,3-0.3,4
			c0.4,1,1.5,1.9,3.1,2.9c1.8,1,3.9,1.8,5.2,2.1c2.1,0.5,7.4,1.5,9.5-0.1c0.9-0.7,1.5-2.9,1.7-3.6l2-7.6c2.2,3.4,2.8,7.4,1.8,11.3
			c-0.9,3.6-3,6-6.2,7.2c-2.9,1.1-6.6,1.1-10.7,0c-2-0.5-3.7-1.3-5.3-2.2C10.5-915.9,8.4-920.5,9.8-925.7z M-21.2-816.7
			c0.2-8.8,8.5-23.4,8.6-23.5l30.2-52.3c0.1-0.1,7.2-12.8,15.8-17.5l0,0c3-1.5,5-4.1,5.9-7.7c1.3-4.8,0.2-9.9-3-13.9l-1-1.2
			l-2.8,10.6c-0.3,1.3-0.8,2.6-1.1,2.8c-1.4,1-5.3,0.5-8.3-0.2c-1.1-0.3-3.1-1-4.7-1.9c-1.3-0.7-2.2-1.5-2.5-2.2
			c-0.1-0.3,0-1.7,0.4-3l2.8-10.6l-1.4,0.6c-4.7,1.8-8.1,5.7-9.4,10.5c-1,3.7-0.4,7.1,1.6,10c1.2,6.5-4.9,16.2-5,16.3l-30.2,52.2
			c-0.1,0.1-8.5,14.7-16.1,19.2l0,0c-2.3,1.1-4.2,2.9-5.6,5.2c-3.7,6.4-1.4,14.8,5.2,18.6c6.6,3.8,15,1.6,18.7-4.8
			C-21.6-811.6-21.1-814.2-21.2-816.7L-21.2-816.7z"/>
	</defs>
	<clipPath id="SVGID_18_">
		<use xlink:href="#SVGID_17_"  style="overflow:visible;"/>
	</clipPath>
	<g class="st9">
		<defs>
			<rect id="SVGID_19_" x="-273" y="-2006" width="1440" height="4767"/>
		</defs>
		<clipPath id="SVGID_20_">
			<use xlink:href="#SVGID_19_"  style="overflow:visible;"/>
		</clipPath>
		
			<rect x="-85.8" y="-891.3" transform="matrix(0.5 -0.866 0.866 0.5 750.6443 -440.3513)" class="st10" width="159.6" height="42.1"/>
	</g>
</g>
<g>
	<defs>
		<path id="SVGID_21_" d="M5.7-891.3c0.7-1.1,2.1-1.5,3.3-0.9c1.2,0.7,1.6,2.2,0.9,3.3l-25.1,43.4c-0.7,1.1-2.1,1.5-3.3,0.8
			s-1.6-2.2-0.9-3.3L5.7-891.3z M-19.2-843.3c1.9,1.1,4.3,0.5,5.4-1.4l25.1-43.4c1.1-1.9,0.4-4.3-1.5-5.4c-1.9-1.1-4.3-0.5-5.4,1.4
			l-25.1,43.4C-21.8-846.8-21.1-844.4-19.2-843.3z"/>
	</defs>
	<clipPath id="SVGID_22_">
		<use xlink:href="#SVGID_21_"  style="overflow:visible;"/>
	</clipPath>
	<g class="st11">
		<defs>
			<rect id="SVGID_23_" x="-273" y="-2006" width="1440" height="4767"/>
		</defs>
		<clipPath id="SVGID_24_">
			<use xlink:href="#SVGID_23_"  style="overflow:visible;"/>
		</clipPath>
		<rect x="-38.7" y="-877.3" transform="matrix(0.5 -0.866 0.866 0.5 749.6479 -438.2922)" class="st12" width="67.9" height="18"/>
	</g>
</g>
<g id="Welcome_1_" sketch:type="MSPage" class="st13">
	<g id="Analytics" transform="translate(-224.000000, -1068.000000)" sketch:type="MSArtboardGroup" class="st14">
		
			<g id="Page-1_1_" transform="translate(266.972432, 1135.750943) rotate(-330.000000) translate(-266.972432, -1135.750943) translate(249.972432, 1059.250943)" sketch:type="MSLayerGroup">
			<path id="Fill-1" sketch:type="MSShapeGroup" d="M145.5,152l-0.7-3.1l-3.2,0l-2-2.5l-2.9,1.4l-2.9-1.4l-2,2.5l-3.2,0l-0.7,3
				l-2.9,1.3l0.7,3l-2,2.4l2,2.4l-0.7,3l2.9,1.3l0.7,3.1l3.2,0l2,2.5l2.9-1.4l2.9,1.4l2-2.5l3.2,0l0.7-3.1l2.9-1.3l-0.7-3l2-2.4
				l-2-2.4l0.7-3L145.5,152z M146.2,163.3l-2.4,1.1l-0.6,2.5l-2.6,0l-1.6,2l-2.3-1.1l-2.3,1.1l-1.6-2l-2.6,0l-0.6-2.5l-2.4-1.1
				l0.6-2.5l-1.6-2l1.6-2l-0.6-2.5l2.4-1.1l0.6-2.5l2.6,0l1.6-2l2.3,1.1l2.3-1.1l1.6,2l2.6,0l0.6,2.5l2.4,1.1l-0.6,2.5l1.6,2l-1.6,2
				L146.2,163.3z"/>
			<path id="Fill-2" sketch:type="MSShapeGroup" d="M150.7,150.1c-5.1-9.2-5.1-29.4-5.1-29.6l0-72.3c0-0.2-0.2-17.6,5.9-27.6l0,0
				c2.2-3.3,2.7-7.3,1.5-11.5c-1.6-5.8-5.8-10.4-11.5-12.6l-1.7-0.7l3.5,12.7c0.4,1.5,0.7,3.2,0.5,3.6c-0.8,1.8-5.2,3.7-8.7,4.8
				c-1.3,0.4-3.8,0.9-6.1,0.9c-1.8,0-3.2-0.3-3.8-0.8c-0.4-0.3-1-1.8-1.4-3.4l-3.5-12.7l-1.1,1.4c-3.8,4.7-5.1,10.8-3.5,16.5
				c1.2,4.4,3.9,7.6,7.7,9.4c5.2,6.1,4.6,19.8,4.6,19.9l0,72.3c0,0.2,0,20.4-5.1,29.6l0,0c-1.7,2.5-2.6,5.5-2.6,8.7
				c0,8.9,7.4,16.2,16.5,16.2c9.1,0,16.5-7.3,16.5-16.2C153.3,155.6,152.3,152.6,150.7,150.1L150.7,150.1z M117.5,18.3
				c-1.3-4.6-0.5-9.4,2-13.4l2.5,9c0.2,0.8,0.9,3.5,2.1,4.4c1,0.8,2.7,1.1,4.9,1.1c2.5,0,5.1-0.5,6.6-0.9c2.5-0.8,8.6-2.9,9.9-5.8
				c0.5-1.2-0.2-4-0.4-4.8l-2.5-9.1c4.3,2.2,7.4,6,8.6,10.6c1.2,4.3,0.5,8-2.1,11.2c-2.4,2.9-6.2,5.2-11.1,6.4
				c-2.4,0.6-4.6,0.9-6.8,0.9C124.1,28,119.2,24.5,117.5,18.3L117.5,18.3z M129.8,120.4l0-72.3c0-0.5,0.5-11.9-3.6-19
				c1.5,0.4,3.2,0.6,4.9,0.6c2.3,0,4.7-0.3,7.2-1c3.5-0.9,6.6-2.3,9-4.1c-3.9,10.2-3.7,22.8-3.7,23.4l0,72.3c0,0.7,0,15.5,3.4,25.7
				c-2.8-2.2-6.4-3.5-10.3-3.5s-7.5,1.3-10.3,3.5C129.8,135.9,129.8,121.2,129.8,120.4L129.8,120.4z M136.8,173.2
				c-8.1,0-14.7-6.4-14.7-14.4c0-7.9,6.6-14.4,14.7-14.4c8.1,0,14.7,6.4,14.7,14.4C151.5,166.7,144.9,173.2,136.8,173.2L136.8,173.2
				z"/>
			<path id="Fill-3" sketch:type="MSShapeGroup" d="M136.8,121.2c2.6,0,4.8-2.1,4.8-4.7l0-60.1c0-2.6-2.1-4.7-4.8-4.7
				c-2.6,0-4.8,2.1-4.8,4.7l0,60.1C132,119.1,134.1,121.2,136.8,121.2L136.8,121.2z M133.8,56.5c0-1.6,1.3-2.9,2.9-2.9
				c1.6,0,2.9,1.3,2.9,2.9l0,60.1c0,1.6-1.3,2.9-2.9,2.9c-1.6,0-2.9-1.3-2.9-2.9V56.5z"/>
		</g>
	</g>
</g>
<g id="Welcome_2_" sketch:type="MSPage" class="st13">
	<g id="Big-Data" transform="translate(-335.000000, -1186.000000)" sketch:type="MSArtboardGroup" class="st14">
		<g id="Fill-2-_x2B_-Fill-3-_x2B_-Fill-4" transform="translate(335.000000, 1186.000000)" sketch:type="MSLayerGroup">
			<path id="Fill-2_1_" sketch:type="MSShapeGroup" d="M171.7,142h-35.8v-2h35.8V142z M141,145h-5.1v2h5.1V145z M171.7,145h-25.5v2
				h25.5V145z M156.3,150.1h-20.4v2h20.4V150.1z M171.7,150.1h-10.2v2h10.2V150.1z M151.2,155.2h-15.3v2h15.3L151.2,155.2
				L151.2,155.2z M156.3,109.6h-20.4v2h20.4V109.6z M171.7,109.6h-10.2v2h10.2V109.6z M171.7,114.7h-35.8v2h35.8V114.7z
				 M151.2,119.8h-15.3v2h15.3L151.2,119.8L151.2,119.8z M171.7,119.8h-15.3v2h15.3L171.7,119.8L171.7,119.8z M161.4,124.8h-25.5v2
				h25.5V124.8z M171.7,172.1h-35.8v-2h35.8V172.1z M141,175.1h-5.1v2h5.1V175.1z M171.7,175.1h-25.5v2h25.5V175.1z M156.3,180.2
				h-20.4v2h20.4V180.2z M171.7,180.2h-10.2v2h10.2V180.2z M151.2,185.3h-15.3v2h15.3L151.2,185.3L151.2,185.3z"/>
			<path id="Fill-3_1_" sketch:type="MSShapeGroup" d="M176.8,89.4h-6c-1-1.6-2.2-3.2-3.4-4.7l-0.4-0.5l-0.6,0.1
				c-3.2,0.4-12.1,1.2-14.8,0.1c-0.5-0.2-1.2-1.2-1.8-2.1c-1.1-1.5-2.2-3.1-3.7-3.1h-10.2c-1.5,0-2.6,1.6-3.7,3.1
				c-0.6,0.8-1.3,1.9-1.8,2.1c-2.7,1.1-11.6,0.3-14.8-0.1l-0.6-0.1l-0.4,0.5c-1.2,1.5-2.4,3.1-3.4,4.7h-6c-3.4,0-6.1,2.7-6.1,6.1
				v101.1c0,3.3,2.7,6.1,6.1,6.1h71.5c3.4,0,6.1-2.7,6.1-6.1V95.5C182.9,92.1,180.1,89.4,176.8,89.4L176.8,89.4z M115.9,86.4
				c2.6,0.3,11.9,1.2,15.3-0.1c1-0.4,1.8-1.6,2.7-2.8c0.5-0.8,1.6-2.2,2-2.2h10.2c0.5,0,1.5,1.4,2,2.2c0.9,1.2,1.7,2.3,2.7,2.8
				c3.3,1.4,12.6,0.4,15.3,0.1c2.4,3,4.7,6.6,5.1,8h-60.4C111.2,93.1,113.6,89.5,115.9,86.4L115.9,86.4z M180.8,196.6
				c0,2.2-1.8,4-4.1,4h-71.5c-2.3,0-4.1-1.8-4.1-4V95.5c0-2.2,1.8-4,4.1-4h4.8c-1,1.8-1.6,3.4-1.1,4.2c0.3,0.5,0.8,0.9,1.5,0.9h61.3
				c0.7,0,1.2-0.3,1.5-0.9c0.4-0.8-0.1-2.4-1.1-4.2h4.8c2.3,0,4.1,1.8,4.1,4V196.6z M141,90.4c-2,0-3.6-1.6-3.6-3.5
				c0-1.9,1.6-3.5,3.6-3.5c2,0,3.6,1.6,3.6,3.5C144.6,88.8,143,90.4,141,90.4L141,90.4z M141,85.4c-0.8,0-1.5,0.7-1.5,1.5
				c0,0.8,0.7,1.5,1.5,1.5c0.8,0,1.5-0.7,1.5-1.5C142.5,86,141.8,85.4,141,85.4L141,85.4z"/>
			<path id="Fill-4" sketch:type="MSShapeGroup" d="M125.7,141v15.2h-15.3V141H125.7L125.7,141z M125.7,139h-15.3c-1.1,0-2,0.9-2,2
				v15.2c0,1.1,0.9,2,2,2h15.3c1.1,0,2-0.9,2-2V141C127.7,139.9,126.8,139,125.7,139L125.7,139z M125.7,110.7v15.2h-15.3v-15.2
				H125.7L125.7,110.7z M125.7,108.6h-15.3c-1.1,0-2,0.9-2,2v15.2c0,1.1,0.9,2,2,2h15.3c1.1,0,2-0.9,2-2v-15.2
				C127.7,109.5,126.8,108.6,125.7,108.6L125.7,108.6z M125.7,171.1v15.2h-15.3v-15.2H125.7L125.7,171.1z M125.7,169.1h-15.3
				c-1.1,0-2,0.9-2,2v15.2c0,1.1,0.9,2,2,2h15.3c1.1,0,2-0.9,2-2v-15.2C127.7,170,126.8,169.1,125.7,169.1L125.7,169.1z"/>
		</g>
	</g>
</g>
<g id="Welcome_3_" sketch:type="MSPage" class="st13">
	<g id="Big-Data_1_" transform="translate(-202.000000, -1488.000000)" sketch:type="MSArtboardGroup" class="st14">
		<g id="PLatform-Archtecture" transform="translate(203.000000, 1489.000000)" sketch:type="MSLayerGroup">
			<path id="Stroke-1" sketch:type="MSShapeGroup" class="st15" d="M92.3,177.2h-7.5c-2.7,0-5-3.1-5-5.8v-68.6c0-2.7,2.2-5,5-5
				h108.6c2.7,0,4.1,2.2,4.1,5V145"/>
			<path id="Stroke-2" sketch:type="MSShapeGroup" class="st15" d="M183.5,171.8h-11.6"/>
			<path id="Stroke-3" sketch:type="MSShapeGroup" class="st15" d="M92.3,172.3h-7.5v-66.1h109.5v40.5"/>
			<path id="Fill-4_1_" sketch:type="MSShapeGroup" d="M141.2,102.3c0,2.5-3.7,2.5-3.7,0S141.2,99.8,141.2,102.3"/>
			<path id="Stroke-5" sketch:type="MSShapeGroup" class="st16" d="M183.5,183.3h-10"/>
			<path id="Stroke-6" sketch:type="MSShapeGroup" class="st16" d="M173.6,176.4h10"/>
			<path id="Stroke-7" sketch:type="MSShapeGroup" class="st16" d="M90.6,183.8H76.5l-5-6.6h19.1"/>
			<path id="Stroke-8" sketch:type="MSShapeGroup" class="st15" d="M209.2,185.5c0,2.7-2.2,5-5,5h-14.9c-2.7,0-5-2.2-5-5v-34.7
				c0-2.7,2.2-5,5-5h14.9c2.7,0,5,2.2,5,5V185.5z"/>
			<path id="Stroke-9" sketch:type="MSShapeGroup" class="st15" d="M187.7,152.4h18.2v31.4h-18.2V152.4z"/>
			<path id="Fill-10" sketch:type="MSShapeGroup" d="M198.3,187c0,2.3-3.5,2.3-3.5,0C194.9,184.7,198.3,184.7,198.3,187"/>
			<path id="Stroke-11" sketch:type="MSShapeGroup" d="M70.8,97.6"/>
			<path id="Stroke-12" sketch:type="MSShapeGroup" class="st15" d="M172.7,185.5c0,2.7-2.2,5-5,5H96.4c-2.7,0-5-2.2-5-5v-46.3
				c0-2.7,2.2-5,5-5h71.3c2.7,0,5,2.2,5,5V185.5z"/>
			<path id="Stroke-13" sketch:type="MSShapeGroup" class="st15" d="M96.4,137.6h64.7v49.6H96.4V137.6z"/>
			<path id="Fill-14" sketch:type="MSShapeGroup" d="M94.7,162.6c0,1.4-2.1,1.4-2.1,0S94.7,161.2,94.7,162.6"/>
			<path id="Fill-15" sketch:type="MSShapeGroup" d="M167.7,161.5c0,3-4.4,3-4.4,0C163.3,158.5,167.7,158.5,167.7,161.5"/>
		</g>
	</g>
</g>
<g id="Welcome_4_" sketch:type="MSPage" class="st13">
	<g id="Big-Data_2_" transform="translate(-230.000000, -1862.000000)" sketch:type="MSArtboardGroup" class="st14">
		<g id="Date-Integration" transform="translate(230.000000, 1862.000000)" sketch:type="MSLayerGroup">
			<path id="Fill-1_1_" sketch:type="MSShapeGroup" d="M138.9,200.8h-1.8v-75.9l-8-6.9v-7.3h1.8v6.5l8,6.9V200.8z"/>
			<path id="Fill-2_2_" sketch:type="MSShapeGroup" d="M131,200.8h-1.8V129l-8-7.1v-15.2h1.8v14.5l8,6.9V200.8z"/>
			<path id="Fill-3_2_" sketch:type="MSShapeGroup" d="M148.4,200.8h-2.7V122l7-6.9v-5.4h2.7v6.4l-7,7V200.8z"/>
			<path id="Fill-4_2_" sketch:type="MSShapeGroup" d="M155.9,200.8h-1.8v-73.6l7-6.9v-12.6h1.8v13.2l-7,6.9V200.8z"/>
			<path id="Fill-5" sketch:type="MSShapeGroup" d="M129.8,134.1l0.6,0.6"/>
			<path id="Fill-6" sketch:type="MSShapeGroup" d="M154.6,129.7l0.8-0.5"/>
			<path id="Fill-7" sketch:type="MSShapeGroup" d="M146.7,170.4l0.8-0.5"/>
			<path id="Fill-8" sketch:type="MSShapeGroup" d="M127.9,92.8h4.4v18.9h-4.4V92.8z"/>
			<path id="Fill-9" sketch:type="MSShapeGroup" d="M120,92.8h4.4v18.9H120V92.8z"/>
			<path id="Fill-10_1_" sketch:type="MSShapeGroup" d="M151.8,92.8h4.4v18.9h-4.4V92.8z"/>
			<path id="Fill-11" sketch:type="MSShapeGroup" d="M159.8,92.8h4.4v18.9h-4.4V92.8z"/>
			<path id="Fill-12" sketch:type="MSShapeGroup" d="M106.2,125.7h8.2v8.2h-8.2V125.7z"/>
			<path id="Fill-13" sketch:type="MSShapeGroup" d="M101.2,168.9h8.2v8.2h-8.2V168.9z"/>
			<path id="Fill-14_1_" sketch:type="MSShapeGroup" d="M169.9,127.5h8.2v8.2h-8.2V127.5z"/>
			<path id="Fill-15_1_" sketch:type="MSShapeGroup" d="M165.6,176.3h8.2v8.2h-8.2V176.3z"/>
			<path id="Fill-16" sketch:type="MSShapeGroup" d="M120.8,157.9h2.5v2.5h-2.5V157.9z"/>
			<path id="Fill-17" sketch:type="MSShapeGroup" d="M114.9,163.3h2.5v2.5h-2.5V163.3z"/>
			<path id="Fill-18" sketch:type="MSShapeGroup" d="M102.1,138.7h2.5v2.5h-2.5V138.7z"/>
			<path id="Fill-19" sketch:type="MSShapeGroup" d="M160.7,149.1h2.5v2.5h-2.5V149.1z"/>
			<path id="Fill-20" sketch:type="MSShapeGroup" d="M177.5,139.7h2.5v2.5h-2.5V139.7z"/>
			<path id="Fill-21" sketch:type="MSShapeGroup" d="M158.2,174.5h2.5v2.5h-2.5V174.5z"/>
			<path id="Fill-22" sketch:type="MSShapeGroup" d="M114.8,143.3h5.3v5.3h-5.3V143.3z"/>
			<path id="Fill-23" sketch:type="MSShapeGroup" d="M113.3,179.8h5.3v5.3h-5.3V179.8z"/>
			<path id="Fill-24" sketch:type="MSShapeGroup" d="M160.1,133.6h5.3v5.3h-5.3V133.6z"/>
			<path id="Fill-25" sketch:type="MSShapeGroup" d="M171.7,149.7h5.3v5.3h-5.3V149.7z"/>
			<path id="Fill-26" sketch:type="MSShapeGroup" d="M164.4,160.9h5.3v5.3h-5.3V160.9z"/>
			<path id="Fill-27" sketch:type="MSShapeGroup" d="M177.9,168h5.3v5.3h-5.3V168z"/>
			<path id="Fill-28" sketch:type="MSShapeGroup" d="M105.8,154.4h5.3v5.3h-5.3V154.4z"/>
			<path id="Fill-29" sketch:type="MSShapeGroup" d="M120.8,165.7h5.3v5.3h-5.3V165.7z"/>
		</g>
	</g>
</g>
<g id="Welcome_5_" sketch:type="MSPage" class="st13">
	<g id="Big-Data_3_" transform="translate(-208.000000, -2702.000000)" sketch:type="MSArtboardGroup" class="st14">
		<g id="cloud-infra" transform="translate(208.000000, 2702.000000)" sketch:type="MSLayerGroup">
			<path id="Fill-1_2_" sketch:type="MSShapeGroup" d="M179.7,165.8h-24.4c-0.4,0-0.7-0.3-0.7-0.7s0.3-0.7,0.7-0.7h24.4
				c10.9,0,19.7-8.8,19.7-19.7c0-10.9-8.8-19.7-19.7-19.7c-1.3,0-2.7,0.1-4,0.4l-0.5,0.1l-0.2-0.4c-3.7-6.9-10.8-11.1-18.6-11.1
				c-3.8,0-7.6,1-10.8,3l-0.5,0.3l-0.4-0.5c-3.7-4.7-9.3-7.5-15.3-7.5c-10.7,0-19.4,8.7-19.4,19.4v0.6l-0.6,0.2
				c-8.8,1-15.4,8.5-15.4,17.3c0,1.9,0.3,3.7,0.9,5.5c0.1,0.4-0.1,0.7-0.4,0.9c-0.4,0.1-0.7-0.1-0.9-0.4c-0.6-1.9-1-3.9-1-5.9
				c0-9.3,6.8-17.2,16-18.6c0.3-11.3,9.5-20.3,20.8-20.3c6.2,0,12,2.7,16,7.5c3.4-1.9,7.2-2.9,11-2.9c8.1,0,15.5,4.4,19.5,11.4
				c1.3-0.2,2.5-0.3,3.8-0.3c11.6,0,21,9.4,21,21C200.8,156.4,191.3,165.8,179.7,165.8L179.7,165.8z"/>
			<path id="Fill-2_3_" sketch:type="MSShapeGroup" d="M150,174.7H77.8c-0.4,0-0.7-0.3-0.7-0.7v-17.5c0-0.4,0.3-0.7,0.7-0.7H150
				c0.4,0,0.7,0.3,0.7,0.7V174C150.7,174.4,150.4,174.7,150,174.7L150,174.7z M78.5,173.3h70.8v-16.1H78.5V173.3z"/>
			<path id="Fill-3_3_" sketch:type="MSShapeGroup" d="M119.7,169.9c-0.2,0-0.3-0.1-0.5-0.2c-0.3-0.3-0.3-0.7,0-1l7.8-7.8
				c0.3-0.3,0.7-0.3,1,0c0.3,0.3,0.3,0.7,0,1l-7.8,7.8C120.1,169.8,119.9,169.9,119.7,169.9L119.7,169.9z"/>
			<path id="Fill-4_3_" sketch:type="MSShapeGroup" d="M124.4,169.9c-0.2,0-0.3-0.1-0.5-0.2c-0.3-0.3-0.3-0.7,0-1l7.8-7.8
				c0.3-0.3,0.7-0.3,1,0c0.3,0.3,0.3,0.7,0,1l-7.8,7.8C124.7,169.8,124.6,169.9,124.4,169.9L124.4,169.9z"/>
			<path id="Fill-5_1_" sketch:type="MSShapeGroup" d="M129,169.9c-0.2,0-0.3-0.1-0.5-0.2c-0.3-0.3-0.3-0.7,0-1l7.8-7.8
				c0.3-0.3,0.7-0.3,1,0c0.3,0.3,0.3,0.7,0,1l-7.8,7.8C129.4,169.8,129.2,169.9,129,169.9L129,169.9z"/>
			<path id="Fill-6_1_" sketch:type="MSShapeGroup" d="M133.7,169.9c-0.2,0-0.3-0.1-0.5-0.2c-0.3-0.3-0.3-0.7,0-1l7.8-7.8
				c0.3-0.3,0.7-0.3,1,0c0.3,0.3,0.3,0.7,0,1l-7.8,7.8C134.1,169.8,133.9,169.9,133.7,169.9L133.7,169.9z"/>
			<path id="Fill-7_1_" sketch:type="MSShapeGroup" d="M138.4,169.9c-0.2,0-0.3-0.1-0.5-0.2c-0.3-0.3-0.3-0.7,0-1l7.8-7.8
				c0.3-0.3,0.7-0.3,1,0c0.3,0.3,0.3,0.7,0,1l-7.8,7.8C138.7,169.8,138.5,169.9,138.4,169.9L138.4,169.9z"/>
			<path id="Fill-8_1_" sketch:type="MSShapeGroup" d="M86.8,168.9c-2,0-3.7-1.6-3.7-3.7c0-2,1.6-3.7,3.7-3.7c2,0,3.7,1.6,3.7,3.7
				C90.5,167.3,88.8,168.9,86.8,168.9L86.8,168.9z M86.8,163c-1.3,0-2.3,1-2.3,2.3c0,1.3,1,2.3,2.3,2.3c1.3,0,2.3-1,2.3-2.3
				C89.1,164,88.1,163,86.8,163L86.8,163z"/>
			<path id="Fill-9_1_" sketch:type="MSShapeGroup" d="M114.9,129C114.9,129,114.9,129,114.9,129c-0.5,0-0.7-0.4-0.7-0.8
				c1-8.6,8.3-15,17-15c0.4,0,0.7,0.3,0.7,0.7s-0.3,0.7-0.7,0.7c-8,0-14.7,5.9-15.6,13.8C115.6,128.8,115.3,129,114.9,129L114.9,129
				z"/>
		</g>
	</g>
</g>
<g id="Welcome_7_" sketch:type="MSPage" class="st13">
	<g id="Customer-Service" transform="translate(-202.000000, -1481.000000)" sketch:type="MSArtboardGroup" class="st14">
		<g id="Page-1_2_" transform="translate(201.000000, 1480.000000)" sketch:type="MSLayerGroup">
			<path id="Fill-1_3_" sketch:type="MSShapeGroup" d="M101.8,164.4c4.5,0,8.2-3.6,8.2-8.1c0-4.5-3.7-8.1-8.2-8.1
				c-4.5,0-8.2,3.6-8.2,8.1C93.6,160.7,97.3,164.4,101.8,164.4L101.8,164.4z M101.8,150.3c3.3,0,6,2.7,6,6c0,3.3-2.7,6-6,6
				c-3.3,0-6-2.7-6-6C95.8,153,98.5,150.3,101.8,150.3L101.8,150.3z"/>
			<path id="Fill-2_4_" sketch:type="MSShapeGroup" d="M128.8,148.2c-4.5,0-8.1,3.6-8.1,8.1c0,4.5,3.7,8.1,8.1,8.1
				c4.5,0,8.2-3.6,8.2-8.1C136.9,151.8,133.3,148.2,128.8,148.2L128.8,148.2z M128.8,162.3c-3.3,0-6-2.7-6-6c0-3.3,2.7-6,6-6
				c3.3,0,6,2.7,6,6C134.8,159.6,132.1,162.3,128.8,162.3L128.8,162.3z"/>
			<path id="Fill-3_4_" sketch:type="MSShapeGroup" d="M151.5,148.2c-4.5,0-8.2,3.6-8.2,8.1c0,4.5,3.7,8.1,8.2,8.1
				c4.5,0,8.2-3.6,8.2-8.1C159.6,151.8,156,148.2,151.5,148.2L151.5,148.2z M151.5,162.3c-3.3,0-6-2.7-6-6c0-3.3,2.7-6,6-6
				c3.3,0,6,2.7,6,6C157.5,159.6,154.8,162.3,151.5,162.3L151.5,162.3z"/>
			<path id="Fill-4_4_" sketch:type="MSShapeGroup" d="M128.8,169.4c-4.5,0-8.1,3.6-8.1,8.1c0,4.5,3.7,8.1,8.1,8.1
				c4.5,0,8.2-3.6,8.2-8.1C136.9,173,133.3,169.4,128.8,169.4L128.8,169.4z M128.8,183.5c-3.3,0-6-2.7-6-6c0-3.3,2.7-6,6-6
				c3.3,0,6,2.7,6,6C134.8,180.8,132.1,183.5,128.8,183.5L128.8,183.5z"/>
			<path id="Fill-5_2_" sketch:type="MSShapeGroup" d="M151.5,169.4c-4.5,0-8.2,3.6-8.2,8.1c0,4.5,3.7,8.1,8.2,8.1
				c4.5,0,8.2-3.6,8.2-8.1C159.6,173,156,169.4,151.5,169.4L151.5,169.4z M151.5,183.5c-3.3,0-6-2.7-6-6c0-3.3,2.7-6,6-6
				c3.3,0,6,2.7,6,6C157.5,180.8,154.8,183.5,151.5,183.5L151.5,183.5z"/>
			<path id="Fill-6_2_" sketch:type="MSShapeGroup" d="M178.5,164.4c4.5,0,8.2-3.6,8.2-8.1c0-4.5-3.7-8.1-8.2-8.1
				c-4.5,0-8.1,3.6-8.1,8.1C170.3,160.7,174,164.4,178.5,164.4L178.5,164.4z M178.5,150.3c3.3,0,6,2.7,6,6c0,3.3-2.7,6-6,6
				c-3.3,0-6-2.7-6-6C172.5,153,175.2,150.3,178.5,150.3L178.5,150.3z"/>
			<path id="Fill-7_2_" sketch:type="MSShapeGroup" d="M145.4,122.2c-0.4-0.4-1.1-0.4-1.5,0c-0.4,0.4-0.4,1.1,0,1.5l6.1,6.1
				l-6.1,6.1c-0.4,0.4-0.4,1.1,0,1.5c0.2,0.2,0.5,0.3,0.8,0.3c0.3,0,0.6-0.1,0.8-0.3l6.1-6.1l6.1,6.1c0.2,0.2,0.5,0.3,0.8,0.3
				c0.3,0,0.6-0.1,0.8-0.3c0.4-0.4,0.4-1.1,0-1.5l-6.1-6.1l6.1-6.1c0.4-0.4,0.4-1.1,0-1.5c-0.4-0.4-1.1-0.4-1.5,0l-6.1,6.1
				L145.4,122.2z"/>
			<path id="Fill-8_2_" sketch:type="MSShapeGroup" d="M138.9,106.3l-6.1,6.1c-0.4,0.4-0.4,1.1,0,1.5c0.2,0.2,0.5,0.3,0.8,0.3
				c0.3,0,0.5-0.1,0.8-0.3l6.1-6.1l6.1,6.1c0.2,0.2,0.5,0.3,0.8,0.3c0.3,0,0.5-0.1,0.8-0.3c0.4-0.4,0.4-1.1,0-1.5l-6.1-6.1l6.1-6.1
				c0.4-0.4,0.4-1.1,0-1.5c-0.4-0.4-1.1-0.4-1.5,0l-6.1,6.1l-6.1-6.1c-0.4-0.4-1.1-0.4-1.5,0c-0.4,0.4-0.4,1.1,0,1.5L138.9,106.3z"
				/>
			<path id="Fill-9_2_" sketch:type="MSShapeGroup" d="M177,129.7l-6.1,6.1c-0.4,0.4-0.4,1.1,0,1.5c0.2,0.2,0.5,0.3,0.8,0.3
				c0.3,0,0.6-0.1,0.8-0.3l6.1-6.1l6.1,6.1c0.2,0.2,0.5,0.3,0.8,0.3c0.3,0,0.5-0.1,0.8-0.3c0.4-0.4,0.4-1.1,0-1.5l-6.1-6.1l6.1-6.1
				c0.4-0.4,0.4-1.1,0-1.5c-0.4-0.4-1.1-0.4-1.5,0l-6.1,6.1l-6.1-6.1c-0.4-0.4-1.1-0.4-1.5,0c-0.4,0.4-0.4,1.1,0,1.5L177,129.7z"/>
			<path id="Fill-10_2_" sketch:type="MSShapeGroup" d="M127.3,129.7l-6.1,6.1c-0.4,0.4-0.4,1.1,0,1.5c0.2,0.2,0.5,0.3,0.8,0.3
				c0.3,0,0.6-0.1,0.8-0.3l6.1-6.1l6.1,6.1c0.2,0.2,0.5,0.3,0.8,0.3c0.3,0,0.6-0.1,0.8-0.3c0.4-0.4,0.4-1.1,0-1.5l-6.1-6.1l6.1-6.1
				c0.4-0.4,0.4-1.1,0-1.5c-0.4-0.4-1.1-0.4-1.5,0l-6.1,6.1l-6.1-6.1c-0.4-0.4-1.1-0.4-1.5,0c-0.4,0.4-0.4,1.1,0,1.5L127.3,129.7z"
				/>
			<path id="Fill-11_1_" sketch:type="MSShapeGroup" d="M109.4,122.2c-0.4-0.4-1.1-0.4-1.5,0l-6.1,6.1l-6.1-6.1
				c-0.4-0.4-1.1-0.4-1.5,0c-0.4,0.4-0.4,1.1,0,1.5l6.1,6.1l-6.1,6.1c-0.4,0.4-0.4,1.1,0,1.5c0.2,0.2,0.5,0.3,0.8,0.3
				c0.3,0,0.5-0.1,0.8-0.3l6.1-6.1l6.1,6.1c0.2,0.2,0.5,0.3,0.8,0.3c0.3,0,0.6-0.1,0.8-0.3c0.4-0.4,0.4-1.1,0-1.5l-6.1-6.1l6.1-6.1
				C109.8,123.3,109.8,122.6,109.4,122.2L109.4,122.2z"/>
			<path id="Fill-12_1_" sketch:type="MSShapeGroup" d="M206,115.9l-7.1-5c0,0,0,0,0,0c0,0-0.1-0.1-0.2-0.1c0,0,0,0,0,0
				c-0.1,0-0.1,0-0.1,0c0,0,0,0-0.1,0c0,0,0,0,0,0c0,0-0.1,0-0.1,0h0c-0.1,0-0.3,0-0.4,0.1c0,0,0,0,0,0c0,0-0.1,0-0.1,0.1
				c0,0,0,0,0,0c-0.1,0-0.1,0.1-0.2,0.1l0,0c0,0-0.1,0.1-0.1,0.1c0,0,0,0,0,0c0,0,0,0,0,0c0,0,0,0,0,0.1l-3.9,6.8
				c-0.3,0.5-0.1,1.2,0.4,1.5c0.5,0.3,1.2,0.1,1.5-0.4l2.5-4.4c4.7,20.9,2.8,36.9-5.6,47.9c-10.6,13.7-28.2,14.3-28.3,14.3
				c-0.6,0-1.1,0.5-1,1.1c0,0.6,0.5,1,1.1,1h0c0.8,0,18.8-0.5,30-15.1c8.8-11.4,10.8-28.1,6-49.6l4.8,3.3c0.2,0.1,0.4,0.2,0.6,0.2
				c0.3,0,0.7-0.2,0.9-0.5C206.6,116.9,206.5,116.2,206,115.9L206,115.9z"/>
			<path id="Fill-13_1_" sketch:type="MSShapeGroup" d="M116.2,176.6c-0.2,0-17.8-2.1-28.4-17.2c-8.6-12.3-10.3-29.5-5.1-51.3h27.1
				l-2.9,3.4c-0.4,0.4-0.3,1.1,0.1,1.5c0.2,0.2,0.5,0.3,0.7,0.3c0.3,0,0.6-0.1,0.8-0.4l4.5-5.2v0c0,0,0,0,0,0
				c0.1-0.1,0.1-0.1,0.1-0.2c0,0,0,0,0,0c0,0,0,0,0,0c0-0.1,0.1-0.2,0.1-0.3v0c0-0.1,0-0.2,0-0.3c0,0,0,0,0-0.1c0-0.1,0-0.2-0.1-0.3
				c0,0,0,0,0,0c0-0.1-0.1-0.1-0.2-0.2c0,0,0,0,0,0l-5.1-5.3c-0.4-0.4-1.1-0.4-1.5,0c-0.4,0.4-0.4,1.1,0,1.5l3.4,3.5H81.8
				c-0.5,0-0.9,0.3-1,0.8c-5.6,22.8-3.9,40.9,5.2,53.8c11.2,15.9,29.1,18,29.9,18.1c0,0,0.1,0,0.1,0c0.5,0,1-0.4,1.1-0.9
				C117.2,177.2,116.7,176.7,116.2,176.6L116.2,176.6z"/>
		</g>
	</g>
</g>
<g id="Welcome_6_" sketch:type="MSPage" class="st13">
	<g id="About-Page" transform="translate(-210.000000, -1038.000000)" sketch:type="MSArtboardGroup" class="st14">
		<g id="noun_209589" transform="translate(211.000000, 1039.000000)" sketch:type="MSLayerGroup">
			<g id="Group" sketch:type="MSShapeGroup">
				<path id="Shape" class="st17" d="M144.8,111.5l-7.5-11.3c-1.9-2-22.1-2.9-33.9,8.8c-11.8,11.7-7.1,29.3-7.1,29.3l10.4-0.4
					c-2.3-22.4,14.9-22.8,14.9-22.8l-5.3,29.7c-2.9,12.6,18.2,15.4,18.2,15.4c28.1,3.9,38.4,32.4,38.4,32.4
					c8.9,5.9,12.4-1.9,12.4-1.9c1-19.7-16.3-34.6-18-36.4c-1.6-1.8-17.2-8.7-17.2-8.7l3.5-19.7l14,9l25.3-1.5l-1.4-10.1
					c0,0-18.8-0.9-21-1.7c-2.2-0.8-20.7-17.7-20.7-17.7l-4.8,7.5L144.8,111.5L144.8,111.5z"/>
				<path id="Shape_1_" class="st17" d="M126.4,163.8l16.2,5.7c0,0-9.4,30.9-27.3,41.5c0,0-13.5,1.1-8.2-9.3
					C112.4,191.3,125.4,181.7,126.4,163.8L126.4,163.8z"/>
				<path id="Shape_2_" class="st17" d="M110.3,165.8c0,2.5-2,4.6-4.6,4.6H81.3c-2.5,0-4.6-2.1-4.6-4.6v-16.4c0-2.5,2-4.6,4.6-4.6
					h24.4c2.5,0,4.6,2,4.6,4.6L110.3,165.8L110.3,165.8z"/>
				<ellipse id="Oval" class="st17" cx="148" cy="83.2" rx="11.7" ry="14.3"/>
			</g>
		</g>
	</g>
</g>
<g id="Welcome_8_" sketch:type="MSPage">
	<g id="About-Page_1_" transform="translate(-207.000000, -2054.000000)" sketch:type="MSArtboardGroup">
		<g id="noun_215193" transform="translate(206.000000, 2053.000000)" sketch:type="MSLayerGroup">
			<path id="Shape_3_" sketch:type="MSShapeGroup" d="M200.5,118.8c-2-6.2-8.7-9.8-14.9-8.2c-6.4-10.4-16.3-18-27.9-21.9
				c-1.1-0.3-2.3-0.6-3.4-0.9c-0.3-6.5-5.7-11.8-12.4-11.8c-6.7,0-12.1,5.3-12.4,11.8C116.5,91,105.2,99.1,98,110.2
				c-2.8-0.6-5.7-0.3-8.4,1.1c-2.9,1.6-5.1,4-6.2,7.3c-1.9,6.1,1.1,12.6,6.8,15.1c-1.1,13.7,3.3,27,12.1,37.6
				c-3.3,5.4-2,12.7,3.3,16.5c2.2,1.6,4.7,2.3,7.3,2.3c0.6,0,1.2,0,2-0.2c2.9-0.5,5.6-2,7.5-4.2c1.1,0.5,2.2,0.8,3.3,1.2
				c5.3,1.7,10.6,2.5,16,2.5c7,0,13.8-1.4,20.3-4.2c2.3,2.5,5.7,3.9,9,3.9c2.5,0,5.1-0.8,7.3-2.3c5.3-3.7,6.7-10.9,3.4-16.5
				c4-5,7-10.4,9-16.6c2-6.4,2.9-13,2.3-19.7C199.4,131.7,202.6,125,200.5,118.8L200.5,118.8z M141.8,80.6c4.3,0,7.8,3.4,7.8,7.8
				c0,4.3-3.4,7.8-7.8,7.8s-7.8-3.4-7.8-7.8C134,84,137.6,80.6,141.8,80.6L141.8,80.6z M87.9,120c0.6-2,2-3.6,3.9-4.5
				c1.1-0.6,2.3-0.8,3.6-0.8c0.8,0,1.6,0.2,2.5,0.3l0,0c2,0.6,3.6,2,4.5,3.9s1.1,4,0.5,5.9c-0.6,2-2,3.6-3.9,4.5s-3.9,1.1-5.9,0.5
				c-2-0.6-3.6-2-4.5-3.9C87.5,124.1,87.3,121.9,87.9,120L87.9,120z M114.2,185.4c-2,0.3-4-0.2-5.7-1.4c-3.4-2.5-4.2-7.5-1.7-10.9
				c2.5-3.4,7.5-4.2,10.9-1.7s4.2,7.5,1.7,10.9C118,184,116.3,185.1,114.2,185.4L114.2,185.4z M175.8,182.9
				c-3.4,2.5-8.4,1.7-10.9-1.7s-1.7-8.4,1.7-10.9c3.4-2.5,8.4-1.7,10.9,1.7C180,175.6,179.2,180.5,175.8,182.9L175.8,182.9z
				 M187.9,152.8c-1.9,5.4-4.5,10.6-8.1,15.1c-4.2-4.2-11-4.8-16-1.2c-5.1,3.7-6.5,10.7-3.6,16c-10.7,4.3-22.5,5-33.5,1.2
				c-0.9-0.3-1.7-0.6-2.5-0.9c2.6-5.3,1.1-11.8-3.9-15.5c-5-3.6-11.6-3-16,1.1c-7.9-9.6-11.8-21.7-11-34.2c0.6,0.2,1.4,0.2,2,0.2
				c1.9,0,3.9-0.5,5.6-1.4c2.9-1.6,5.1-4,6.2-7.3c1.1-3.1,0.8-6.5-0.8-9.5c-1.2-2.3-3.1-4.2-5.4-5.4c6.5-10.1,16.8-17.4,28.6-20.5
				c1.1,5.6,6.2,9.9,12.1,9.9c6.1,0,11-4.2,12.1-9.9c0.9,0.3,1.9,0.5,2.8,0.8c10.7,3.4,19.9,10.6,25.9,20c-2.2,1.2-3.9,3-5,5.3
				c-1.6,3-1.7,6.4-0.8,9.5c1.7,5.3,6.5,8.5,11.8,8.5c0.5,0,0.9,0,1.6-0.2C190.5,141,189.8,146.9,187.9,152.8L187.9,152.8z
				 M191.2,130c-4,1.4-8.5-0.9-9.8-5c-0.6-2-0.5-4,0.5-5.9c0.9-1.9,2.5-3.3,4.5-3.9c0.8-0.3,1.6-0.3,2.3-0.3c3.3,0,6.4,2,7.5,5.4
				C197.4,124.2,195.2,128.6,191.2,130L191.2,130z"/>
		</g>
	</g>
</g>
</svg>
