<?xml version="1.0" encoding="UTF-8" standalone="no"?>
<svg width="30px" height="30px" viewBox="0 0 30 30" version="1.1" xmlns="http://www.w3.org/2000/svg" xmlns:xlink="http://www.w3.org/1999/xlink" xmlns:sketch="http://www.bohemiancoding.com/sketch/ns">
    <!-- Generator: Sketch 3.5.2 (25235) - http://www.bohemiancoding.com/sketch -->
    <title>Page 1</title>
    <desc>Created with Sketch.</desc>
    <defs></defs>
    <g id="Welcome" stroke="none" stroke-width="1" fill="none" fill-rule="evenodd" sketch:type="MSPage">
        <g id="Home" sketch:type="MSArtboardGroup" transform="translate(-141.000000, -274.000000)" fill="#000000">
            <g id="Rectangle-13-Copy-2-+-Watch-the-Video-+-Page-1" sketch:type="MSLayerGroup" transform="translate(130.000000, 240.000000)">
                <g id="Page-1" transform="translate(11.000000, 34.000000)" sketch:type="MSShapeGroup">
                    <path d="M4.71085714,4.71085714 C-0.994285714,10.416 -0.994285714,19.6671429 4.71085714,25.3731429 C10.416,31.0782857 19.6671429,31.0782857 25.3731429,25.3731429 C31.0782857,19.6671429 31.0782857,10.416 25.3731429,4.71085714 C19.6671429,-0.997714286 10.416,-0.997714286 4.71085714,4.71085714 L4.71085714,4.71085714 Z M23.3065714,23.3065714 C18.7431429,27.8708571 11.34,27.8708571 6.77657143,23.3065714 C2.21314286,18.7431429 2.21314286,11.34 6.77657143,6.77657143 C11.34,2.21314286 18.7431429,2.21314286 23.3065714,6.77657143 C27.8708571,11.34 27.8708571,18.7397143 23.3065714,23.3065714 L23.3065714,23.3065714 Z" id="Fill-1"></path>
                    <path d="M9.92742857,9.19714286 C9.92742857,8.394 10.5102857,8.04257143 11.22,8.41714286 L22.5137143,14.3605714 C23.2234286,14.7351429 23.2234286,15.348 22.5137143,15.72 L11.22,21.666 C10.5102857,22.0414286 9.92742857,21.69 9.92742857,20.886 L9.92742857,9.19714286 Z" id="Fill-2"></path>
                </g>
            </g>
        </g>
    </g>
</svg>