<?xml version="1.0" encoding="utf-8"?>
<!-- Generator: Adobe Illustrator 19.2.0, SVG Export Plug-In . SVG Version: 6.00 Build 0)  -->
<svg version="1.1" id="Layer_1" xmlns="http://www.w3.org/2000/svg" xmlns:xlink="http://www.w3.org/1999/xlink" x="0px" y="0px"
	 viewBox="0 0 282 293" style="enable-background:new 0 0 282 293;" xml:space="preserve">
<style type="text/css">
	.st0{display:none;}
	.st1{display:inline;}
	.st2{fill:none;stroke:#222A37;stroke-width:2;stroke-dasharray:24;}
	.st3{fill:#F8F8F8;}
</style>
<g id="Layer_1_1_" xmlns:sketch="http://www.bohemiancoding.com/sketch/ns" class="st0">
	<title>Page 1 Copy 6 + Oval 7 Copy 8</title>
	<desc>Created with Sketch.</desc>
	<g id="Welcome" sketch:type="MSPage" class="st1">
		<g id="Product-v3" transform="translate(-127.000000, -3048.000000)" sketch:type="MSArtboardGroup">
			<g id="Page-1-Copy-6-_x2B_-Oval-7-Copy-8" transform="translate(127.000000, 3048.000000)" sketch:type="MSLayerGroup">
				<g id="Page-1-Copy-6" transform="translate(94.000000, 92.000000)" sketch:type="MSShapeGroup">
					<path id="Fill-1" d="M48.4,30C31.6,30,18,43.2,18,59.5c0,11,6.2,20.9,16.3,26.1v5.6c0,5.2,3.6,9.6,8.4,11
						c0.5,3.4,3.4,6.1,7.1,6.1c3.7,0,6.9-2.9,7.1-6.6c4.2-1.8,7-5.8,7-10.5V85c9.3-5.3,15-15.1,15-25.4C79,43.3,65.3,30,48.4,30
						L48.4,30z M49.7,105.6c-2,0-3.7-1.3-4.3-3.2h0.3h6.8c0.5,0,1.2,0,1.7-0.1C53.5,104.2,51.9,105.6,49.7,105.6L49.7,105.6z
						 M62.1,83.1l-0.6,0.4v0.8v0.1l0,0v6.7c0,4.9-4,8.9-8.9,8.9h-6.8c-5,0-8.9-3.9-8.9-8.9V84l-0.8-0.4C26.5,79,20.5,69.8,20.5,59.5
						c0-14.8,12.5-27,27.9-27s28.1,12.2,28.1,27C76.5,69.3,71,78.3,62.1,83.1L62.1,83.1z"/>
					<path id="Fill-2" d="M48.1,36.8v2.5c11.3,0,20.7,9.2,20.7,20.5h2.6C71.3,47.1,60.8,36.8,48.1,36.8L48.1,36.8z"/>
					<path id="Fill-3" d="M84.3,58h12v2.5h-12V58z"/>
					<path id="Fill-4" d="M82.1,47.1l11.4-3.7l0.8,2.4l-11.4,3.7L82.1,47.1z"/>
					<path id="Fill-5" d="M87.8,32.4l-9.7,7l-1.5-2l9.7-7L87.8,32.4z"/>
					<path id="Fill-6" d="M75.4,20.2l2.1,1.5l-7,9.6l-2.1-1.5L75.4,20.2z"/>
					<path id="Fill-7" d="M62,13.9l2.4,0.8L60.7,26l-2.4-0.8L62,13.9z"/>
					<path id="Fill-8" d="M47,12.1h2.6V24H47V12.1z"/>
					<path id="Fill-9" d="M34.8,14l3.7,11.3l-2.4,0.8l-3.7-11.3L34.8,14z"/>
					<path id="Fill-10" d="M21.3,20.5l7,9.6l-2.1,1.5l-7-9.6L21.3,20.5z"/>
					<path id="Fill-11" d="M10.4,30.7l9.7,7l-1.5,2l-9.7-7L10.4,30.7z"/>
					<path id="Fill-12" d="M14,49.9L2.6,46.2l0.8-2.4l11.4,3.7L14,49.9z"/>
					<path id="Fill-13" d="M0.6,58.4h12v2.5h-12C0.6,60.9,0.6,58.4,0.6,58.4z"/>
				</g>
				<circle id="Oval-7-Copy-8" sketch:type="MSShapeGroup" class="st2" cx="141" cy="152" r="141">
				</circle>
			</g>
		</g>
	</g>
</g>
<g id="Layer_2">
</g>
<g id="Layer_3">
</g>
<g id="Layer_5">
	<path class="st3" d="M282,0h-14H141v32.2c0.8,0,1.7,0,2.5,0c62.1,0,112.5,52.3,112.5,116.9S205.6,266,143.5,266c-0.8,0-1.7,0-2.5,0
		v27h127h14h10V0H282z"/>
</g>
<g id="Layer_4">
</g>
</svg>
